M48
; DRILL file {KiCad 7.0.5} date Tue Jul  4 17:16:03 2023
; FORMAT={-:-/ absolute / inch / decimal}
; #@! TF.CreationDate,2023-07-04T17:16:03-06:00
; #@! TF.GenerationSoftware,Kicad,Pcbnew,7.0.5
; #@! TF.FileFunction,NonPlated,1,2,NPTH
FMAT,2
INCH
; #@! TA.AperFunction,NonPlated,NPTH,ComponentDrill
T1C0.0256
; #@! TA.AperFunction,NonPlated,NPTH,ComponentDrill
T2C0.1570
; #@! TA.AperFunction,NonPlated,NPTH,ComponentDrill
T3C0.2362
%
G90
G05
T1
X3.5449Y-1.1982
X3.7724Y-1.1982
T2
X1.5455Y-1.5459
X2.1201Y-2.028
X2.1957Y-4.9583
X2.6946Y-2.51
X3.2835Y-3.8504
X4.0335Y-3.8504
X4.6223Y-2.51
X5.1213Y-4.9583
X5.1969Y-2.028
X5.7714Y-1.5459
T3
X1.315Y-2.7717
X1.9843Y-4.2677
X2.6929Y-1.6693
X3.6587Y-3.252
X3.6587Y-4.7402
X4.624Y-1.6693
X5.3327Y-4.2677
X6.002Y-2.7717
T0
M30
