%TF.GenerationSoftware,KiCad,Pcbnew,7.0.5*%
%TF.CreationDate,2023-07-04T17:15:59-06:00*%
%TF.ProjectId,keyboard,6b657962-6f61-4726-942e-6b696361645f,0.1*%
%TF.SameCoordinates,Original*%
%TF.FileFunction,Copper,L2,Bot*%
%TF.FilePolarity,Positive*%
%FSLAX46Y46*%
G04 Gerber Fmt 4.6, Leading zero omitted, Abs format (unit mm)*
G04 Created by KiCad (PCBNEW 7.0.5) date 2023-07-04 17:15:59*
%MOMM*%
%LPD*%
G01*
G04 APERTURE LIST*
G04 Aperture macros list*
%AMRotRect*
0 Rectangle, with rotation*
0 The origin of the aperture is its center*
0 $1 length*
0 $2 width*
0 $3 Rotation angle, in degrees counterclockwise*
0 Add horizontal line*
21,1,$1,$2,0,0,$3*%
G04 Aperture macros list end*
%TA.AperFunction,ComponentPad*%
%ADD10C,0.800000*%
%TD*%
%TA.AperFunction,SMDPad,CuDef*%
%ADD11R,4.500000X2.500000*%
%TD*%
%TA.AperFunction,ComponentPad*%
%ADD12C,4.000000*%
%TD*%
%TA.AperFunction,SMDPad,CuDef*%
%ADD13RotRect,4.500000X2.500000X40.000000*%
%TD*%
%TA.AperFunction,SMDPad,CuDef*%
%ADD14RotRect,4.500000X2.500000X50.000000*%
%TD*%
%TA.AperFunction,SMDPad,CuDef*%
%ADD15RotRect,4.500000X2.500000X320.000000*%
%TD*%
%TA.AperFunction,SMDPad,CuDef*%
%ADD16RotRect,4.500000X2.500000X310.000000*%
%TD*%
%TA.AperFunction,ComponentPad*%
%ADD17O,1.000000X2.100000*%
%TD*%
%TA.AperFunction,ComponentPad*%
%ADD18O,1.000000X1.600000*%
%TD*%
%TA.AperFunction,ViaPad*%
%ADD19C,0.800000*%
%TD*%
%TA.AperFunction,Conductor*%
%ADD20C,0.200000*%
%TD*%
G04 APERTURE END LIST*
D10*
%TO.P,SW6,1,1*%
%TO.N,GND*%
X74510000Y-94498000D03*
X74510000Y-96022000D03*
D11*
X76315000Y-95260000D03*
D12*
X79590000Y-95260000D03*
%TO.P,SW6,2,2*%
%TO.N,/K4*%
X85940000Y-92720000D03*
D11*
X89242000Y-92720000D03*
D10*
X91020000Y-91958000D03*
X91020000Y-93482000D03*
%TD*%
%TO.P,SW9,1,1*%
%TO.N,GND*%
X123067380Y-54694903D03*
X124046989Y-55862355D03*
D13*
X124939895Y-54118397D03*
D12*
X127448690Y-52013268D03*
%TO.P,SW9,2,2*%
%TO.N,/K7*%
X130680392Y-45985814D03*
D13*
X133209871Y-43863329D03*
D10*
X134082093Y-42136727D03*
X135061702Y-43304179D03*
%TD*%
%TO.P,SW8,1,1*%
%TO.N,GND*%
X108474235Y-66940007D03*
X109453844Y-68107459D03*
D13*
X110346750Y-66363501D03*
D12*
X112855545Y-64258372D03*
%TO.P,SW8,2,2*%
%TO.N,/K6*%
X116087247Y-58230918D03*
D13*
X118616726Y-56108433D03*
D10*
X119488948Y-54381831D03*
X120468557Y-55549283D03*
%TD*%
%TO.P,SW7,1,1*%
%TO.N,GND*%
X93560000Y-94498000D03*
X93560000Y-96022000D03*
D11*
X95365000Y-95260000D03*
D12*
X98640000Y-95260000D03*
%TO.P,SW7,2,2*%
%TO.N,/K5*%
X104990000Y-92720000D03*
D11*
X108292000Y-92720000D03*
D10*
X110070000Y-91958000D03*
X110070000Y-93482000D03*
%TD*%
%TO.P,SW11,1,1*%
%TO.N,/K3*%
X121836139Y-130627650D03*
X123003591Y-131607259D03*
D14*
X123580097Y-129734744D03*
D12*
X125685226Y-127225949D03*
%TO.P,SW11,2,2*%
%TO.N,GND*%
X127821175Y-120728886D03*
D14*
X129943659Y-118199407D03*
D10*
X130502810Y-116347576D03*
X131670262Y-117327184D03*
%TD*%
%TO.P,SW4,1,1*%
%TO.N,GND*%
X63755496Y-55511242D03*
X62775887Y-56678694D03*
D15*
X64648402Y-57255200D03*
D12*
X67157197Y-59360329D03*
%TO.P,SW4,2,2*%
%TO.N,/K2*%
X73654260Y-61496278D03*
D15*
X76183739Y-63618762D03*
D10*
X78035570Y-64177913D03*
X77055962Y-65345365D03*
%TD*%
%TO.P,SW5,1,1*%
%TO.N,GND*%
X52585097Y-117007380D03*
X51417645Y-117986989D03*
D16*
X53161603Y-118879895D03*
D12*
X55266732Y-121388690D03*
%TO.P,SW5,2,2*%
%TO.N,/K3*%
X61294186Y-124620392D03*
D16*
X63416671Y-127149871D03*
D10*
X65143273Y-128022093D03*
X63975821Y-129001702D03*
%TD*%
%TO.P,SW3,1,1*%
%TO.N,GND*%
X49162350Y-43266139D03*
X48182741Y-44433591D03*
D15*
X50055256Y-45010097D03*
D12*
X52564051Y-47115226D03*
%TO.P,SW3,2,2*%
%TO.N,/K1*%
X59061114Y-49251175D03*
D15*
X61590593Y-51373659D03*
D10*
X63442424Y-51932810D03*
X62462816Y-53100262D03*
%TD*%
%TO.P,SW2,1,1*%
%TO.N,GND*%
X34569203Y-31021032D03*
X33589594Y-32188484D03*
D15*
X35462109Y-32764990D03*
D12*
X37970904Y-34870119D03*
%TO.P,SW2,2,2*%
%TO.N,/K0*%
X44467967Y-37006068D03*
D15*
X46997446Y-39128552D03*
D10*
X48849277Y-39687703D03*
X47869669Y-40855155D03*
%TD*%
%TO.P,SW10,1,1*%
%TO.N,GND*%
X137660528Y-42449798D03*
X138640137Y-43617250D03*
D13*
X139533043Y-41873292D03*
D12*
X142041838Y-39768163D03*
%TO.P,SW10,2,2*%
%TO.N,/K8*%
X145273540Y-33740709D03*
D13*
X147803019Y-31618224D03*
D10*
X148675241Y-29891622D03*
X149654850Y-31059074D03*
%TD*%
D17*
%TO.P,J1,S1,SHIELD*%
%TO.N,GND*%
X88610000Y-30965000D03*
D18*
X88610000Y-26785000D03*
D17*
X97250000Y-30965000D03*
D18*
X97250000Y-26785000D03*
%TD*%
D19*
%TO.N,GND*%
X89600000Y-39100000D03*
%TO.N,/RUN*%
X81000000Y-32100000D03*
%TO.N,GND*%
X103700000Y-53400000D03*
X94800000Y-52500000D03*
X83500000Y-46000000D03*
X84900000Y-41700000D03*
X94000000Y-51700000D03*
X100800000Y-43900000D03*
X96400000Y-63700000D03*
X94800000Y-50900000D03*
X93200000Y-50900000D03*
X93200000Y-52500000D03*
X86100000Y-52800000D03*
%TO.N,+3.3V*%
X89100000Y-54000000D03*
X99200000Y-50000000D03*
X100300000Y-53700000D03*
X91800000Y-43500000D03*
X88900000Y-48300000D03*
X89600000Y-41500000D03*
X94200000Y-53900000D03*
%TO.N,/RUN*%
X98000000Y-59700000D03*
%TD*%
D20*
%TO.N,+3.3V*%
X91800000Y-48000000D02*
X91800000Y-43500000D01*
X93500000Y-49700000D02*
X91800000Y-48000000D01*
X98900000Y-49700000D02*
X93500000Y-49700000D01*
X99200000Y-50000000D02*
X98900000Y-49700000D01*
%TO.N,/RUN*%
X81000000Y-49400000D02*
X81000000Y-32100000D01*
X88300000Y-56700000D02*
X81000000Y-49400000D01*
X96600000Y-56700000D02*
X88300000Y-56700000D01*
X98000000Y-58100000D02*
X96600000Y-56700000D01*
X98000000Y-59700000D02*
X98000000Y-58100000D01*
%TO.N,+3.3V*%
X89600000Y-41500000D02*
X89600000Y-42300000D01*
X94200000Y-53900000D02*
X94100000Y-54000000D01*
X90800000Y-43500000D02*
X91800000Y-43500000D01*
X94400000Y-53700000D02*
X100300000Y-53700000D01*
X89600000Y-42300000D02*
X90800000Y-43500000D01*
X88900000Y-46400000D02*
X91800000Y-43500000D01*
X99200000Y-50000000D02*
X99200000Y-52600000D01*
X94100000Y-54000000D02*
X89100000Y-54000000D01*
X94200000Y-53900000D02*
X94400000Y-53700000D01*
X88900000Y-48300000D02*
X88900000Y-46400000D01*
X99200000Y-52600000D02*
X100300000Y-53700000D01*
%TO.N,/K3*%
X65143273Y-128022093D02*
X119230582Y-128022093D01*
X119230582Y-128022093D02*
X121836139Y-130627650D01*
%TD*%
%TA.AperFunction,Conductor*%
%TO.N,GND*%
G36*
X88093111Y-25420185D02*
G01*
X88138866Y-25472989D01*
X88148810Y-25542147D01*
X88119785Y-25605703D01*
X88091664Y-25629732D01*
X87994732Y-25690149D01*
X87847331Y-25830264D01*
X87847330Y-25830266D01*
X87731143Y-25997195D01*
X87650940Y-26184092D01*
X87610000Y-26383309D01*
X87610000Y-26535000D01*
X88310000Y-26535000D01*
X88310000Y-27035000D01*
X87610000Y-27035000D01*
X87610000Y-27135713D01*
X87625418Y-27287338D01*
X87686299Y-27481381D01*
X87686304Y-27481391D01*
X87785005Y-27659215D01*
X87785005Y-27659216D01*
X87917478Y-27813530D01*
X87917479Y-27813531D01*
X88078304Y-27938018D01*
X88260907Y-28027589D01*
X88360000Y-28053244D01*
X88360000Y-27251110D01*
X88384457Y-27290610D01*
X88473962Y-27358201D01*
X88581840Y-27388895D01*
X88693521Y-27378546D01*
X88793922Y-27328552D01*
X88860000Y-27256069D01*
X88860000Y-28058366D01*
X88861944Y-28058069D01*
X88861945Y-28058069D01*
X89052660Y-27987436D01*
X89052664Y-27987434D01*
X89225267Y-27879850D01*
X89372668Y-27739735D01*
X89372669Y-27739733D01*
X89488856Y-27572804D01*
X89569059Y-27385907D01*
X89610000Y-27186690D01*
X89610000Y-27035000D01*
X88910000Y-27035000D01*
X88910000Y-26535000D01*
X89610000Y-26535000D01*
X89610000Y-26434286D01*
X89594581Y-26282661D01*
X89533700Y-26088618D01*
X89533695Y-26088608D01*
X89434994Y-25910784D01*
X89434994Y-25910783D01*
X89302521Y-25756469D01*
X89302520Y-25756468D01*
X89141697Y-25631982D01*
X89138091Y-25629735D01*
X89091609Y-25577571D01*
X89080707Y-25508557D01*
X89108848Y-25444605D01*
X89167097Y-25406019D01*
X89203678Y-25400500D01*
X96666072Y-25400500D01*
X96733111Y-25420185D01*
X96778866Y-25472989D01*
X96788810Y-25542147D01*
X96759785Y-25605703D01*
X96731664Y-25629732D01*
X96634732Y-25690149D01*
X96487331Y-25830264D01*
X96487330Y-25830266D01*
X96371143Y-25997195D01*
X96290940Y-26184092D01*
X96250000Y-26383309D01*
X96250000Y-26535000D01*
X96950000Y-26535000D01*
X96950000Y-27035000D01*
X96250000Y-27035000D01*
X96250000Y-27135713D01*
X96265418Y-27287338D01*
X96326299Y-27481381D01*
X96326304Y-27481391D01*
X96425005Y-27659215D01*
X96425005Y-27659216D01*
X96557478Y-27813530D01*
X96557479Y-27813531D01*
X96718304Y-27938018D01*
X96900907Y-28027589D01*
X97000000Y-28053244D01*
X97000000Y-27251110D01*
X97024457Y-27290610D01*
X97113962Y-27358201D01*
X97221840Y-27388895D01*
X97333521Y-27378546D01*
X97433922Y-27328552D01*
X97500000Y-27256069D01*
X97500000Y-28058366D01*
X97501944Y-28058069D01*
X97501945Y-28058069D01*
X97692660Y-27987436D01*
X97692664Y-27987434D01*
X97865267Y-27879850D01*
X98012668Y-27739735D01*
X98012669Y-27739733D01*
X98128856Y-27572804D01*
X98209059Y-27385907D01*
X98250000Y-27186690D01*
X98250000Y-27035000D01*
X97550000Y-27035000D01*
X97550000Y-26535000D01*
X98250000Y-26535000D01*
X98250000Y-26434286D01*
X98234581Y-26282661D01*
X98173700Y-26088618D01*
X98173695Y-26088608D01*
X98074994Y-25910784D01*
X98074994Y-25910783D01*
X97942521Y-25756469D01*
X97942520Y-25756468D01*
X97781697Y-25631982D01*
X97778091Y-25629735D01*
X97731609Y-25577571D01*
X97720707Y-25508557D01*
X97748848Y-25444605D01*
X97807097Y-25406019D01*
X97843678Y-25400500D01*
X159896000Y-25400500D01*
X159963039Y-25420185D01*
X160008794Y-25472989D01*
X160020000Y-25524500D01*
X160020000Y-139576000D01*
X160000315Y-139643039D01*
X159947511Y-139688794D01*
X159896000Y-139700000D01*
X25524500Y-139700000D01*
X25457461Y-139680315D01*
X25411706Y-139627511D01*
X25400500Y-139576000D01*
X25400500Y-120196284D01*
X51981721Y-120196284D01*
X52742072Y-121102434D01*
X52742072Y-121102433D01*
X52747378Y-121041794D01*
X52772830Y-120976725D01*
X52829421Y-120935746D01*
X52881713Y-120929073D01*
X53810687Y-121010347D01*
X53807648Y-121019200D01*
X53766732Y-121264396D01*
X53766732Y-121508410D01*
X52763800Y-121420665D01*
X52763799Y-121420665D01*
X52781539Y-121702632D01*
X52781540Y-121702639D01*
X52840487Y-122011648D01*
X52937695Y-122310822D01*
X52937697Y-122310827D01*
X53071632Y-122595451D01*
X53071635Y-122595457D01*
X53240187Y-122861054D01*
X53440708Y-123103442D01*
X53670019Y-123318780D01*
X53670029Y-123318788D01*
X53924504Y-123503675D01*
X53924522Y-123503686D01*
X54200179Y-123655230D01*
X54200187Y-123655234D01*
X54492658Y-123771030D01*
X54571269Y-123791215D01*
X54631307Y-123826953D01*
X54662492Y-123889477D01*
X54654924Y-123958935D01*
X54611005Y-124013276D01*
X54610608Y-124013550D01*
X54375918Y-124174654D01*
X54153062Y-124376216D01*
X53959058Y-124605686D01*
X53959056Y-124605688D01*
X53797366Y-124858972D01*
X53680630Y-125110533D01*
X53670882Y-125131540D01*
X53637771Y-125238276D01*
X53581854Y-125418535D01*
X53531874Y-125714842D01*
X53521833Y-126015167D01*
X53551910Y-126314142D01*
X53551911Y-126314149D01*
X53621568Y-126606441D01*
X53621571Y-126606453D01*
X53729566Y-126886853D01*
X53729573Y-126886868D01*
X53873979Y-127150375D01*
X53873983Y-127150381D01*
X53965296Y-127274312D01*
X54052223Y-127392290D01*
X54195042Y-127539964D01*
X54261120Y-127608288D01*
X54261127Y-127608294D01*
X54286318Y-127628187D01*
X54496946Y-127794518D01*
X54755487Y-127947652D01*
X55032133Y-128064960D01*
X55032136Y-128064960D01*
X55032139Y-128064962D01*
X55177039Y-128104654D01*
X55321946Y-128144348D01*
X55619755Y-128184400D01*
X55619760Y-128184400D01*
X55845041Y-128184400D01*
X56008513Y-128173456D01*
X56069819Y-128169352D01*
X56364287Y-128109499D01*
X56648151Y-128010931D01*
X56916343Y-127875407D01*
X57164080Y-127705346D01*
X57386939Y-127503782D01*
X57580943Y-127274312D01*
X57742631Y-127021032D01*
X57869118Y-126748460D01*
X57958146Y-126461462D01*
X58008126Y-126165158D01*
X58018167Y-125864836D01*
X57988089Y-125565855D01*
X57918430Y-125273551D01*
X57810431Y-124993140D01*
X57666021Y-124729625D01*
X57585541Y-124620397D01*
X58788742Y-124620397D01*
X58808496Y-124934396D01*
X58808497Y-124934403D01*
X58867456Y-125243475D01*
X58964683Y-125542708D01*
X58964685Y-125542713D01*
X59098647Y-125827395D01*
X59098650Y-125827401D01*
X59267237Y-126093053D01*
X59267240Y-126093057D01*
X59467792Y-126335482D01*
X59467794Y-126335484D01*
X59467796Y-126335486D01*
X59601947Y-126461462D01*
X59697154Y-126550868D01*
X59697164Y-126550876D01*
X59951690Y-126735800D01*
X59951695Y-126735802D01*
X59951702Y-126735808D01*
X60227420Y-126887386D01*
X60227425Y-126887388D01*
X60227427Y-126887389D01*
X60227428Y-126887390D01*
X60519957Y-127003210D01*
X60519960Y-127003211D01*
X60824709Y-127081457D01*
X60824713Y-127081458D01*
X61055514Y-127110614D01*
X61119557Y-127138545D01*
X61134961Y-127153930D01*
X63552757Y-130035345D01*
X63552761Y-130035349D01*
X63595979Y-130076887D01*
X63621112Y-130091133D01*
X63721187Y-130147858D01*
X63861318Y-130180678D01*
X64005018Y-130172690D01*
X64140646Y-130124540D01*
X64190430Y-130091133D01*
X64256916Y-130035345D01*
X65849970Y-128698612D01*
X65905992Y-128651603D01*
X65970000Y-128623591D01*
X65985698Y-128622593D01*
X118930485Y-128622593D01*
X118997524Y-128642278D01*
X119018166Y-128658912D01*
X120686458Y-130327204D01*
X120719943Y-130388527D01*
X120715631Y-130456370D01*
X120680535Y-130555226D01*
X120680534Y-130555228D01*
X120672547Y-130698929D01*
X120705364Y-130839055D01*
X120705366Y-130839061D01*
X120776338Y-130964267D01*
X120817868Y-131007480D01*
X120817872Y-131007484D01*
X120817881Y-131007493D01*
X122806338Y-132676005D01*
X122856122Y-132709413D01*
X122856125Y-132709414D01*
X122991749Y-132757563D01*
X122999737Y-132758006D01*
X123135450Y-132765551D01*
X123275581Y-132732731D01*
X123400787Y-132661761D01*
X123444014Y-132620217D01*
X125844450Y-129759486D01*
X125902621Y-129720785D01*
X125923893Y-129716171D01*
X126154699Y-129687015D01*
X126459451Y-129608768D01*
X126459454Y-129608767D01*
X126751983Y-129492947D01*
X126751984Y-129492946D01*
X126751982Y-129492946D01*
X126751992Y-129492943D01*
X127027710Y-129341365D01*
X127282256Y-129156427D01*
X127511616Y-128941043D01*
X127712173Y-128698612D01*
X127880763Y-128432956D01*
X128014729Y-128148264D01*
X128111957Y-127849028D01*
X128170914Y-127539964D01*
X128173191Y-127503782D01*
X128173687Y-127495891D01*
X128197541Y-127430219D01*
X128253113Y-127387869D01*
X128322759Y-127382287D01*
X128384368Y-127415245D01*
X128386576Y-127417471D01*
X128571120Y-127608288D01*
X128571127Y-127608294D01*
X128596318Y-127628187D01*
X128806946Y-127794518D01*
X129065487Y-127947652D01*
X129342133Y-128064960D01*
X129342136Y-128064960D01*
X129342139Y-128064962D01*
X129487039Y-128104653D01*
X129631946Y-128144348D01*
X129929755Y-128184400D01*
X129929760Y-128184400D01*
X130155041Y-128184400D01*
X130318513Y-128173456D01*
X130379819Y-128169352D01*
X130674287Y-128109499D01*
X130958151Y-128010931D01*
X131226343Y-127875407D01*
X131474080Y-127705346D01*
X131696939Y-127503782D01*
X131890943Y-127274312D01*
X132052631Y-127021032D01*
X132179118Y-126748460D01*
X132268146Y-126461462D01*
X132318126Y-126165158D01*
X132328167Y-125864836D01*
X132298089Y-125565855D01*
X132228430Y-125273551D01*
X132120431Y-124993140D01*
X131976021Y-124729625D01*
X131797777Y-124487710D01*
X131588879Y-124271711D01*
X131588872Y-124271705D01*
X131353055Y-124085483D01*
X131353056Y-124085483D01*
X131353054Y-124085482D01*
X131094513Y-123932348D01*
X130817867Y-123815040D01*
X130817860Y-123815037D01*
X130528059Y-123735653D01*
X130528056Y-123735652D01*
X130528054Y-123735652D01*
X130230245Y-123695600D01*
X130004967Y-123695600D01*
X130004959Y-123695600D01*
X129780183Y-123710647D01*
X129780174Y-123710649D01*
X129485710Y-123770501D01*
X129201847Y-123869069D01*
X129201844Y-123869071D01*
X128933662Y-124004589D01*
X128685918Y-124174655D01*
X128463062Y-124376216D01*
X128269058Y-124605686D01*
X128269056Y-124605688D01*
X128107366Y-124858972D01*
X127990630Y-125110533D01*
X127980882Y-125131540D01*
X127947771Y-125238276D01*
X127891854Y-125418535D01*
X127859596Y-125609779D01*
X127829035Y-125672610D01*
X127769356Y-125708945D01*
X127699507Y-125707247D01*
X127641780Y-125668195D01*
X127511619Y-125510858D01*
X127511617Y-125510856D01*
X127282257Y-125295472D01*
X127282247Y-125295464D01*
X127027721Y-125110540D01*
X127027714Y-125110535D01*
X127027710Y-125110533D01*
X126751992Y-124958955D01*
X126751989Y-124958953D01*
X126751984Y-124958951D01*
X126751983Y-124958950D01*
X126459454Y-124843130D01*
X126459451Y-124843129D01*
X126154702Y-124764883D01*
X126154689Y-124764881D01*
X125842555Y-124725449D01*
X125842544Y-124725449D01*
X125527908Y-124725449D01*
X125527896Y-124725449D01*
X125215762Y-124764881D01*
X125215749Y-124764883D01*
X124911000Y-124843129D01*
X124910997Y-124843130D01*
X124618468Y-124958950D01*
X124618467Y-124958951D01*
X124342742Y-125110533D01*
X124342730Y-125110540D01*
X124088204Y-125295464D01*
X124088194Y-125295472D01*
X123858834Y-125510856D01*
X123858832Y-125510858D01*
X123658280Y-125753283D01*
X123658277Y-125753287D01*
X123489690Y-126018939D01*
X123489687Y-126018945D01*
X123355725Y-126303627D01*
X123355723Y-126303632D01*
X123258496Y-126602865D01*
X123199537Y-126911937D01*
X123199536Y-126911944D01*
X123179782Y-127225943D01*
X123179782Y-127225955D01*
X123192034Y-127420712D01*
X123176598Y-127488855D01*
X123163269Y-127508203D01*
X121608945Y-129360575D01*
X121550773Y-129399277D01*
X121480912Y-129400385D01*
X121426274Y-129368550D01*
X120680317Y-128622593D01*
X119685902Y-127628178D01*
X119680562Y-127622088D01*
X119658864Y-127593811D01*
X119533423Y-127497557D01*
X119387344Y-127437049D01*
X119387342Y-127437048D01*
X119269943Y-127421593D01*
X119230582Y-127416411D01*
X119195252Y-127421062D01*
X119187154Y-127421593D01*
X65987610Y-127421593D01*
X65920571Y-127401908D01*
X65892621Y-127377299D01*
X63816142Y-124902649D01*
X63788129Y-124838640D01*
X63787376Y-124815157D01*
X63799630Y-124620396D01*
X63799630Y-124620386D01*
X63779875Y-124306387D01*
X63779874Y-124306380D01*
X63779874Y-124306377D01*
X63720917Y-123997313D01*
X63623689Y-123698077D01*
X63622523Y-123695600D01*
X63566549Y-123576648D01*
X63489723Y-123413385D01*
X63347617Y-123189461D01*
X63321134Y-123147730D01*
X63321131Y-123147726D01*
X63120579Y-122905301D01*
X63120577Y-122905299D01*
X63066971Y-122854959D01*
X62891216Y-122689914D01*
X62891213Y-122689912D01*
X62891207Y-122689907D01*
X62636681Y-122504983D01*
X62636674Y-122504978D01*
X62636670Y-122504976D01*
X62360952Y-122353398D01*
X62360949Y-122353396D01*
X62360944Y-122353394D01*
X62360943Y-122353393D01*
X62068414Y-122237573D01*
X62068411Y-122237572D01*
X61763662Y-122159326D01*
X61763649Y-122159324D01*
X61451515Y-122119892D01*
X61451504Y-122119892D01*
X61136868Y-122119892D01*
X61136856Y-122119892D01*
X60824722Y-122159324D01*
X60824709Y-122159326D01*
X60519960Y-122237572D01*
X60519957Y-122237573D01*
X60227428Y-122353393D01*
X60227427Y-122353394D01*
X59951702Y-122504976D01*
X59951690Y-122504983D01*
X59697164Y-122689907D01*
X59697154Y-122689915D01*
X59467794Y-122905299D01*
X59467792Y-122905301D01*
X59267240Y-123147726D01*
X59267237Y-123147730D01*
X59098650Y-123413382D01*
X59098647Y-123413388D01*
X58964685Y-123698070D01*
X58964683Y-123698075D01*
X58867456Y-123997308D01*
X58808497Y-124306380D01*
X58808496Y-124306387D01*
X58788742Y-124620386D01*
X58788742Y-124620397D01*
X57585541Y-124620397D01*
X57487777Y-124487710D01*
X57278879Y-124271711D01*
X57278872Y-124271705D01*
X57043055Y-124085483D01*
X57043056Y-124085483D01*
X57043054Y-124085482D01*
X56784513Y-123932348D01*
X56507867Y-123815040D01*
X56507860Y-123815037D01*
X56507856Y-123815036D01*
X56492449Y-123810816D01*
X56432991Y-123774120D01*
X56402812Y-123711104D01*
X56411493Y-123641776D01*
X56456277Y-123588146D01*
X56465471Y-123582560D01*
X56608941Y-123503686D01*
X56608959Y-123503675D01*
X56863434Y-123318788D01*
X56863444Y-123318780D01*
X57092755Y-123103442D01*
X57293276Y-122861054D01*
X57461828Y-122595457D01*
X57461831Y-122595451D01*
X57595766Y-122310827D01*
X57595768Y-122310822D01*
X57692979Y-122011640D01*
X57722946Y-121854534D01*
X57722947Y-121854534D01*
X56722777Y-121767031D01*
X56725816Y-121758180D01*
X56766732Y-121512984D01*
X56766732Y-121268967D01*
X57769662Y-121356713D01*
X57769663Y-121356713D01*
X57751924Y-121074747D01*
X57751923Y-121074740D01*
X57692976Y-120765731D01*
X57595768Y-120466557D01*
X57595766Y-120466552D01*
X57522235Y-120310291D01*
X89675792Y-120310291D01*
X89685675Y-120668822D01*
X89685675Y-120668827D01*
X89685676Y-120668832D01*
X89734941Y-121024103D01*
X89734942Y-121024107D01*
X89822989Y-121371799D01*
X89822989Y-121371801D01*
X89948751Y-121707695D01*
X89948752Y-121707698D01*
X90054497Y-121916654D01*
X90110704Y-122027721D01*
X90306878Y-122327988D01*
X90402123Y-122443638D01*
X90534894Y-122604853D01*
X90534899Y-122604858D01*
X90791985Y-122854955D01*
X90791990Y-122854959D01*
X91075011Y-123075243D01*
X91075014Y-123075245D01*
X91075022Y-123075251D01*
X91380580Y-123263077D01*
X91704946Y-123416149D01*
X91704948Y-123416149D01*
X91704953Y-123416152D01*
X91704952Y-123416152D01*
X92044168Y-123532604D01*
X92044183Y-123532609D01*
X92394172Y-123611043D01*
X92750665Y-123650500D01*
X93019593Y-123650500D01*
X93019595Y-123650500D01*
X93288125Y-123635685D01*
X93641904Y-123576650D01*
X93987041Y-123479054D01*
X94319346Y-123344083D01*
X94634787Y-123173375D01*
X94929534Y-122969002D01*
X95200010Y-122733445D01*
X95442931Y-122469562D01*
X95655348Y-122180559D01*
X95834683Y-121869941D01*
X95978759Y-121541481D01*
X96085827Y-121199164D01*
X96154588Y-120847147D01*
X96167037Y-120696909D01*
X125318242Y-120696909D01*
X125318243Y-120696909D01*
X126321175Y-120609163D01*
X126321175Y-120853180D01*
X126362091Y-121098376D01*
X126365129Y-121107226D01*
X125364959Y-121194730D01*
X125394930Y-121351844D01*
X125492138Y-121651018D01*
X125492140Y-121651023D01*
X125626075Y-121935647D01*
X125626078Y-121935653D01*
X125794630Y-122201250D01*
X125995151Y-122443638D01*
X126224462Y-122658976D01*
X126224472Y-122658984D01*
X126478947Y-122843871D01*
X126478965Y-122843882D01*
X126754622Y-122995426D01*
X126754630Y-122995430D01*
X127047101Y-123111226D01*
X127351795Y-123189459D01*
X127351804Y-123189461D01*
X127663876Y-123228885D01*
X127663890Y-123228886D01*
X127788941Y-123228886D01*
X127788941Y-123228885D01*
X127701031Y-122224071D01*
X127759132Y-122228886D01*
X127883218Y-122228886D01*
X128068913Y-122213499D01*
X128199130Y-122180523D01*
X128287435Y-123189852D01*
X128287436Y-123189853D01*
X128290555Y-123189460D01*
X128595248Y-123111227D01*
X128887719Y-122995430D01*
X128887727Y-122995426D01*
X129163384Y-122843882D01*
X129163402Y-122843871D01*
X129417877Y-122658984D01*
X129417887Y-122658976D01*
X129647198Y-122443638D01*
X129847719Y-122201250D01*
X130016271Y-121935653D01*
X130016274Y-121935647D01*
X130150209Y-121651023D01*
X130150211Y-121651018D01*
X130247419Y-121351844D01*
X130306366Y-121042835D01*
X130306367Y-121042828D01*
X130324106Y-120760861D01*
X130324105Y-120760861D01*
X129321175Y-120848606D01*
X129321175Y-120604592D01*
X129280259Y-120359396D01*
X129277219Y-120350543D01*
X130206193Y-120269269D01*
X130274693Y-120283036D01*
X130324876Y-120331651D01*
X130340528Y-120381990D01*
X130345832Y-120442627D01*
X130345833Y-120442628D01*
X131123539Y-119515795D01*
X129974473Y-118551615D01*
X129518002Y-118168591D01*
X130295865Y-118168591D01*
X131444933Y-119132773D01*
X132761254Y-117564044D01*
X132794621Y-117514320D01*
X132794624Y-117514314D01*
X132842727Y-117378822D01*
X132850705Y-117235267D01*
X132817917Y-117095271D01*
X132817916Y-117095268D01*
X132747021Y-116970194D01*
X132747019Y-116970192D01*
X132705524Y-116927019D01*
X132705513Y-116927008D01*
X131902835Y-116253480D01*
X130295865Y-118168591D01*
X129518002Y-118168591D01*
X128442383Y-117266040D01*
X127664676Y-118192874D01*
X127725320Y-118187569D01*
X127793820Y-118201336D01*
X127844003Y-118249951D01*
X127859655Y-118300290D01*
X127941317Y-119233700D01*
X127883218Y-119228886D01*
X127759132Y-119228886D01*
X127573437Y-119244273D01*
X127443217Y-119277249D01*
X127354912Y-118267918D01*
X127351789Y-118268313D01*
X127047101Y-118346545D01*
X126754630Y-118462341D01*
X126754622Y-118462345D01*
X126478965Y-118613889D01*
X126478947Y-118613900D01*
X126224472Y-118798787D01*
X126224462Y-118798795D01*
X125995151Y-119014133D01*
X125794630Y-119256521D01*
X125626078Y-119522118D01*
X125626075Y-119522124D01*
X125492140Y-119806748D01*
X125492138Y-119806753D01*
X125394930Y-120105927D01*
X125335983Y-120414936D01*
X125335982Y-120414943D01*
X125318242Y-120696909D01*
X96167037Y-120696909D01*
X96184207Y-120489702D01*
X96174324Y-120131168D01*
X96125059Y-119775897D01*
X96037011Y-119428202D01*
X95973480Y-119258519D01*
X95926400Y-119132773D01*
X95911248Y-119092303D01*
X95749296Y-118772279D01*
X95553122Y-118472012D01*
X95325107Y-118195148D01*
X95324757Y-118194808D01*
X95068014Y-117945044D01*
X95068009Y-117945040D01*
X94784988Y-117724756D01*
X94784985Y-117724754D01*
X94784982Y-117724752D01*
X94784978Y-117724749D01*
X94479420Y-117536923D01*
X94479419Y-117536922D01*
X94479415Y-117536920D01*
X94155046Y-117383847D01*
X94155047Y-117383847D01*
X93815831Y-117267395D01*
X93815820Y-117267392D01*
X93815817Y-117267391D01*
X93511887Y-117199279D01*
X93465824Y-117188956D01*
X93109335Y-117149500D01*
X92840405Y-117149500D01*
X92661385Y-117159376D01*
X92571874Y-117164315D01*
X92218094Y-117223350D01*
X92218090Y-117223351D01*
X91872960Y-117320945D01*
X91872957Y-117320946D01*
X91540661Y-117455913D01*
X91540648Y-117455919D01*
X91225220Y-117626620D01*
X91225219Y-117626621D01*
X90930460Y-117831002D01*
X90659996Y-118066548D01*
X90659992Y-118066551D01*
X90417067Y-118330440D01*
X90204652Y-118619441D01*
X90204651Y-118619442D01*
X90025317Y-118930058D01*
X89881240Y-119258520D01*
X89881239Y-119258521D01*
X89774173Y-119600832D01*
X89705412Y-119952849D01*
X89705410Y-119952863D01*
X89675793Y-120310287D01*
X89675792Y-120310291D01*
X57522235Y-120310291D01*
X57461831Y-120181928D01*
X57461828Y-120181922D01*
X57293276Y-119916325D01*
X57092755Y-119673937D01*
X56863444Y-119458599D01*
X56863434Y-119458591D01*
X56608959Y-119273704D01*
X56608941Y-119273693D01*
X56333284Y-119122149D01*
X56333276Y-119122145D01*
X56040805Y-119006349D01*
X55736111Y-118928116D01*
X55736102Y-118928114D01*
X55732993Y-118927721D01*
X55732992Y-118927722D01*
X55644687Y-119937052D01*
X55514470Y-119904077D01*
X55328775Y-119888690D01*
X55204689Y-119888690D01*
X55146588Y-119893504D01*
X55228251Y-118960094D01*
X55253703Y-118895025D01*
X55310294Y-118854046D01*
X55362587Y-118847373D01*
X55423227Y-118852678D01*
X54662876Y-117946528D01*
X53130789Y-119232103D01*
X51981721Y-120196284D01*
X25400500Y-120196284D01*
X25400500Y-117915755D01*
X50254556Y-117915755D01*
X50262534Y-118059310D01*
X50310637Y-118194802D01*
X50310640Y-118194808D01*
X50344007Y-118244532D01*
X51660327Y-119813260D01*
X52809395Y-118849079D01*
X51202425Y-116933968D01*
X50399748Y-117607496D01*
X50399737Y-117607507D01*
X50358242Y-117650680D01*
X50358240Y-117650682D01*
X50287345Y-117775756D01*
X50287344Y-117775759D01*
X50254556Y-117915755D01*
X25400500Y-117915755D01*
X25400500Y-116612575D01*
X51585448Y-116612575D01*
X53192417Y-118527686D01*
X54341483Y-117563505D01*
X53770485Y-116883016D01*
X128763777Y-116883016D01*
X129912843Y-117847199D01*
X131519812Y-115932087D01*
X130717123Y-115258552D01*
X130667398Y-115225184D01*
X130531902Y-115177082D01*
X130531906Y-115177082D01*
X130388350Y-115169103D01*
X130248356Y-115201891D01*
X130123278Y-115272788D01*
X130080092Y-115314294D01*
X128763777Y-116883016D01*
X53770485Y-116883016D01*
X53025163Y-115994777D01*
X52981983Y-115953276D01*
X52856905Y-115882379D01*
X52856906Y-115882379D01*
X52716911Y-115849591D01*
X52573357Y-115857570D01*
X52437863Y-115905672D01*
X52388138Y-115939040D01*
X51585448Y-116612575D01*
X25400500Y-116612575D01*
X25400500Y-108310291D01*
X47145792Y-108310291D01*
X47155675Y-108668822D01*
X47155675Y-108668827D01*
X47155676Y-108668832D01*
X47204941Y-109024103D01*
X47204942Y-109024107D01*
X47292989Y-109371799D01*
X47292989Y-109371801D01*
X47418751Y-109707695D01*
X47418752Y-109707698D01*
X47569841Y-110006256D01*
X47580704Y-110027721D01*
X47776878Y-110327988D01*
X47776880Y-110327990D01*
X48004894Y-110604853D01*
X48004899Y-110604858D01*
X48261985Y-110854955D01*
X48261990Y-110854959D01*
X48545011Y-111075243D01*
X48545014Y-111075245D01*
X48545022Y-111075251D01*
X48850580Y-111263077D01*
X49174946Y-111416149D01*
X49174948Y-111416149D01*
X49174953Y-111416152D01*
X49174952Y-111416152D01*
X49514168Y-111532604D01*
X49514183Y-111532609D01*
X49864172Y-111611043D01*
X50220665Y-111650500D01*
X50489593Y-111650500D01*
X50489595Y-111650500D01*
X50758125Y-111635685D01*
X51111904Y-111576650D01*
X51457041Y-111479054D01*
X51789346Y-111344083D01*
X52104787Y-111173375D01*
X52399534Y-110969002D01*
X52670010Y-110733445D01*
X52912931Y-110469562D01*
X53125348Y-110180559D01*
X53304683Y-109869941D01*
X53448759Y-109541481D01*
X53555827Y-109199164D01*
X53624588Y-108847147D01*
X53654207Y-108489702D01*
X53649262Y-108310291D01*
X132195792Y-108310291D01*
X132205675Y-108668822D01*
X132205675Y-108668827D01*
X132205676Y-108668832D01*
X132254941Y-109024103D01*
X132254942Y-109024107D01*
X132342989Y-109371799D01*
X132342989Y-109371801D01*
X132468751Y-109707695D01*
X132468752Y-109707698D01*
X132619841Y-110006256D01*
X132630704Y-110027721D01*
X132826878Y-110327988D01*
X132826880Y-110327990D01*
X133054894Y-110604853D01*
X133054899Y-110604858D01*
X133311985Y-110854955D01*
X133311990Y-110854959D01*
X133595011Y-111075243D01*
X133595014Y-111075245D01*
X133595022Y-111075251D01*
X133900580Y-111263077D01*
X134224946Y-111416149D01*
X134224948Y-111416149D01*
X134224953Y-111416152D01*
X134224952Y-111416152D01*
X134564168Y-111532604D01*
X134564183Y-111532609D01*
X134914172Y-111611043D01*
X135270665Y-111650500D01*
X135539593Y-111650500D01*
X135539595Y-111650500D01*
X135808125Y-111635685D01*
X136161904Y-111576650D01*
X136507041Y-111479054D01*
X136839346Y-111344083D01*
X137154787Y-111173375D01*
X137449534Y-110969002D01*
X137720010Y-110733445D01*
X137962931Y-110469562D01*
X138175348Y-110180559D01*
X138354683Y-109869941D01*
X138498759Y-109541481D01*
X138605827Y-109199164D01*
X138674588Y-108847147D01*
X138704207Y-108489702D01*
X138694324Y-108131168D01*
X138645059Y-107775897D01*
X138557011Y-107428202D01*
X138493480Y-107258519D01*
X138431248Y-107092304D01*
X138431247Y-107092301D01*
X138349142Y-106930058D01*
X138269296Y-106772279D01*
X138073122Y-106472012D01*
X137845107Y-106195148D01*
X137712920Y-106066555D01*
X137588014Y-105945044D01*
X137588009Y-105945040D01*
X137304988Y-105724756D01*
X137304985Y-105724754D01*
X137304982Y-105724752D01*
X137304978Y-105724749D01*
X136999420Y-105536923D01*
X136999419Y-105536922D01*
X136999415Y-105536920D01*
X136675046Y-105383847D01*
X136675047Y-105383847D01*
X136335831Y-105267395D01*
X136335820Y-105267392D01*
X136335817Y-105267391D01*
X135985828Y-105188957D01*
X135985824Y-105188956D01*
X135629335Y-105149500D01*
X135360405Y-105149500D01*
X135181384Y-105159376D01*
X135091874Y-105164315D01*
X134738094Y-105223350D01*
X134738090Y-105223351D01*
X134392960Y-105320945D01*
X134392957Y-105320946D01*
X134060661Y-105455913D01*
X134060648Y-105455919D01*
X133745220Y-105626620D01*
X133745219Y-105626621D01*
X133450460Y-105831002D01*
X133179996Y-106066548D01*
X133179992Y-106066551D01*
X132937067Y-106330440D01*
X132724652Y-106619441D01*
X132724651Y-106619442D01*
X132545317Y-106930058D01*
X132401240Y-107258520D01*
X132401239Y-107258521D01*
X132294173Y-107600832D01*
X132225412Y-107952849D01*
X132225410Y-107952863D01*
X132195793Y-108310287D01*
X132195792Y-108310291D01*
X53649262Y-108310291D01*
X53644324Y-108131168D01*
X53595059Y-107775897D01*
X53507011Y-107428202D01*
X53443480Y-107258519D01*
X53381248Y-107092304D01*
X53381247Y-107092301D01*
X53299142Y-106930058D01*
X53219296Y-106772279D01*
X53023122Y-106472012D01*
X52795107Y-106195148D01*
X52662920Y-106066555D01*
X52538014Y-105945044D01*
X52538009Y-105945040D01*
X52254988Y-105724756D01*
X52254985Y-105724754D01*
X52254982Y-105724752D01*
X52254978Y-105724749D01*
X51949420Y-105536923D01*
X51949419Y-105536922D01*
X51949415Y-105536920D01*
X51625046Y-105383847D01*
X51625047Y-105383847D01*
X51285831Y-105267395D01*
X51285820Y-105267392D01*
X51285817Y-105267391D01*
X50935828Y-105188957D01*
X50935824Y-105188956D01*
X50579335Y-105149500D01*
X50310405Y-105149500D01*
X50131385Y-105159376D01*
X50041874Y-105164315D01*
X49688094Y-105223350D01*
X49688090Y-105223351D01*
X49342960Y-105320945D01*
X49342957Y-105320946D01*
X49010661Y-105455913D01*
X49010648Y-105455919D01*
X48695220Y-105626620D01*
X48695219Y-105626621D01*
X48400460Y-105831002D01*
X48129996Y-106066548D01*
X48129992Y-106066551D01*
X47887067Y-106330440D01*
X47674652Y-106619441D01*
X47674651Y-106619442D01*
X47495317Y-106930058D01*
X47351240Y-107258520D01*
X47351239Y-107258521D01*
X47244173Y-107600832D01*
X47175412Y-107952849D01*
X47175410Y-107952863D01*
X47145793Y-108310287D01*
X47145792Y-108310291D01*
X25400500Y-108310291D01*
X25400500Y-95510000D01*
X73565000Y-95510000D01*
X73565000Y-96557844D01*
X73571401Y-96617372D01*
X73571403Y-96617379D01*
X73621645Y-96752086D01*
X73621649Y-96752093D01*
X73707809Y-96867187D01*
X73707812Y-96867190D01*
X73822906Y-96953350D01*
X73822913Y-96953354D01*
X73957620Y-97003596D01*
X73957627Y-97003598D01*
X74017155Y-97009999D01*
X74017172Y-97010000D01*
X76065000Y-97010000D01*
X76565000Y-97010000D01*
X77747897Y-97010000D01*
X77704853Y-96966956D01*
X77671368Y-96905633D01*
X77676352Y-96835941D01*
X77704853Y-96791593D01*
X78366389Y-96130056D01*
X78482632Y-96279404D01*
X78665523Y-96447768D01*
X78720116Y-96483435D01*
X78004971Y-97198579D01*
X78004972Y-97198581D01*
X78247772Y-97374985D01*
X78247790Y-97374996D01*
X78523447Y-97526540D01*
X78523455Y-97526544D01*
X78815926Y-97642340D01*
X79120620Y-97720573D01*
X79120629Y-97720575D01*
X79432701Y-97759999D01*
X79432715Y-97760000D01*
X79747285Y-97760000D01*
X79747298Y-97759999D01*
X80059370Y-97720575D01*
X80059379Y-97720573D01*
X80364073Y-97642340D01*
X80656544Y-97526544D01*
X80656552Y-97526540D01*
X80932209Y-97374996D01*
X80932230Y-97374983D01*
X80986702Y-97335407D01*
X81052508Y-97311926D01*
X81120562Y-97327751D01*
X81169257Y-97377856D01*
X81183133Y-97446334D01*
X81181861Y-97456348D01*
X81161874Y-97574841D01*
X81151833Y-97875167D01*
X81181910Y-98174142D01*
X81181911Y-98174149D01*
X81251568Y-98466441D01*
X81251571Y-98466453D01*
X81359566Y-98746853D01*
X81359573Y-98746868D01*
X81503979Y-99010375D01*
X81503983Y-99010381D01*
X81595296Y-99134312D01*
X81682223Y-99252290D01*
X81891121Y-99468289D01*
X82126946Y-99654518D01*
X82385487Y-99807652D01*
X82662133Y-99924960D01*
X82662136Y-99924960D01*
X82662139Y-99924962D01*
X82807039Y-99964654D01*
X82951946Y-100004348D01*
X83249755Y-100044400D01*
X83249760Y-100044400D01*
X83475041Y-100044400D01*
X83638513Y-100033456D01*
X83699819Y-100029352D01*
X83994287Y-99969499D01*
X84278151Y-99870931D01*
X84546343Y-99735407D01*
X84794080Y-99565346D01*
X85016939Y-99363782D01*
X85210943Y-99134312D01*
X85372631Y-98881032D01*
X85499118Y-98608460D01*
X85588146Y-98321462D01*
X85638126Y-98025158D01*
X85648167Y-97724836D01*
X85618089Y-97425855D01*
X85548430Y-97133551D01*
X85440431Y-96853140D01*
X85296021Y-96589625D01*
X85117777Y-96347710D01*
X84908879Y-96131711D01*
X84908872Y-96131705D01*
X84673055Y-95945483D01*
X84673056Y-95945483D01*
X84673054Y-95945482D01*
X84414513Y-95792348D01*
X84137867Y-95675040D01*
X84137860Y-95675037D01*
X83848059Y-95595653D01*
X83848056Y-95595652D01*
X83848054Y-95595652D01*
X83550245Y-95555600D01*
X83324967Y-95555600D01*
X83324959Y-95555600D01*
X83100183Y-95570647D01*
X83100174Y-95570649D01*
X82805710Y-95630501D01*
X82521847Y-95729069D01*
X82521844Y-95729071D01*
X82253661Y-95864590D01*
X82232948Y-95878808D01*
X82166537Y-95900518D01*
X82098931Y-95882877D01*
X82051595Y-95831485D01*
X82039557Y-95762661D01*
X82040970Y-95753339D01*
X82075191Y-95573946D01*
X82075192Y-95573942D01*
X82079215Y-95510000D01*
X92615000Y-95510000D01*
X92615000Y-96557844D01*
X92621401Y-96617372D01*
X92621403Y-96617379D01*
X92671645Y-96752086D01*
X92671649Y-96752093D01*
X92757809Y-96867187D01*
X92757812Y-96867190D01*
X92872906Y-96953350D01*
X92872913Y-96953354D01*
X93007620Y-97003596D01*
X93007627Y-97003598D01*
X93067155Y-97009999D01*
X93067172Y-97010000D01*
X95115000Y-97010000D01*
X95615000Y-97010000D01*
X96797897Y-97010000D01*
X96754853Y-96966956D01*
X96721368Y-96905633D01*
X96726352Y-96835941D01*
X96754853Y-96791593D01*
X97416389Y-96130056D01*
X97532632Y-96279404D01*
X97715523Y-96447768D01*
X97770116Y-96483435D01*
X97054971Y-97198579D01*
X97054972Y-97198581D01*
X97297772Y-97374985D01*
X97297790Y-97374996D01*
X97573447Y-97526540D01*
X97573455Y-97526544D01*
X97865926Y-97642340D01*
X98170620Y-97720573D01*
X98170629Y-97720575D01*
X98482701Y-97759999D01*
X98482715Y-97760000D01*
X98797285Y-97760000D01*
X98797298Y-97759999D01*
X99109370Y-97720575D01*
X99109379Y-97720573D01*
X99414073Y-97642340D01*
X99706544Y-97526544D01*
X99706552Y-97526540D01*
X99982209Y-97374996D01*
X99982230Y-97374983D01*
X100036702Y-97335407D01*
X100102508Y-97311926D01*
X100170562Y-97327751D01*
X100219257Y-97377856D01*
X100233133Y-97446334D01*
X100231861Y-97456348D01*
X100211874Y-97574841D01*
X100201833Y-97875167D01*
X100231910Y-98174142D01*
X100231911Y-98174149D01*
X100301568Y-98466441D01*
X100301571Y-98466453D01*
X100409566Y-98746853D01*
X100409573Y-98746868D01*
X100553979Y-99010375D01*
X100553983Y-99010381D01*
X100645296Y-99134312D01*
X100732223Y-99252290D01*
X100941121Y-99468289D01*
X101176946Y-99654518D01*
X101435487Y-99807652D01*
X101712133Y-99924960D01*
X101712136Y-99924960D01*
X101712139Y-99924962D01*
X101857039Y-99964654D01*
X102001946Y-100004348D01*
X102299755Y-100044400D01*
X102299760Y-100044400D01*
X102525041Y-100044400D01*
X102688513Y-100033456D01*
X102749819Y-100029352D01*
X103044287Y-99969499D01*
X103328151Y-99870931D01*
X103596343Y-99735407D01*
X103844080Y-99565346D01*
X104066939Y-99363782D01*
X104260943Y-99134312D01*
X104422631Y-98881032D01*
X104549118Y-98608460D01*
X104638146Y-98321462D01*
X104688126Y-98025158D01*
X104698167Y-97724836D01*
X104668089Y-97425855D01*
X104598430Y-97133551D01*
X104490431Y-96853140D01*
X104346021Y-96589625D01*
X104167777Y-96347710D01*
X103958879Y-96131711D01*
X103958872Y-96131705D01*
X103723055Y-95945483D01*
X103723056Y-95945483D01*
X103723054Y-95945482D01*
X103464513Y-95792348D01*
X103187867Y-95675040D01*
X103187860Y-95675037D01*
X102898059Y-95595653D01*
X102898056Y-95595652D01*
X102898054Y-95595652D01*
X102600245Y-95555600D01*
X102374967Y-95555600D01*
X102374959Y-95555600D01*
X102150183Y-95570647D01*
X102150174Y-95570649D01*
X101855710Y-95630501D01*
X101571847Y-95729069D01*
X101571844Y-95729071D01*
X101303661Y-95864590D01*
X101282948Y-95878808D01*
X101216537Y-95900518D01*
X101148931Y-95882877D01*
X101101595Y-95831485D01*
X101089557Y-95762661D01*
X101090970Y-95753339D01*
X101125191Y-95573946D01*
X101125192Y-95573942D01*
X101144943Y-95260005D01*
X101144943Y-95259994D01*
X101125192Y-94946057D01*
X101125191Y-94946050D01*
X101066244Y-94637041D01*
X100969036Y-94337867D01*
X100969034Y-94337862D01*
X100835099Y-94053238D01*
X100835096Y-94053232D01*
X100666542Y-93787632D01*
X100666539Y-93787628D01*
X100575712Y-93677838D01*
X99863609Y-94389941D01*
X99747368Y-94240596D01*
X99564477Y-94072232D01*
X99509882Y-94036563D01*
X100225027Y-93321419D01*
X100225026Y-93321417D01*
X99982227Y-93145014D01*
X99982209Y-93145003D01*
X99706552Y-92993459D01*
X99706544Y-92993455D01*
X99414073Y-92877659D01*
X99109379Y-92799426D01*
X99109370Y-92799424D01*
X98797298Y-92760000D01*
X98482701Y-92760000D01*
X98170629Y-92799424D01*
X98170620Y-92799426D01*
X97865926Y-92877659D01*
X97573455Y-92993455D01*
X97573447Y-92993459D01*
X97297787Y-93145004D01*
X97297782Y-93145007D01*
X97054972Y-93321418D01*
X97054971Y-93321419D01*
X97770116Y-94036564D01*
X97715523Y-94072232D01*
X97532632Y-94240596D01*
X97416389Y-94389942D01*
X96754853Y-93728406D01*
X96721368Y-93667083D01*
X96726352Y-93597391D01*
X96754854Y-93553043D01*
X96797898Y-93510000D01*
X95615000Y-93510000D01*
X95615000Y-97010000D01*
X95115000Y-97010000D01*
X95115000Y-95510000D01*
X92615000Y-95510000D01*
X82079215Y-95510000D01*
X82094943Y-95260005D01*
X82094943Y-95259994D01*
X82075192Y-94946057D01*
X82075191Y-94946050D01*
X82016244Y-94637041D01*
X81919036Y-94337867D01*
X81919034Y-94337862D01*
X81785099Y-94053238D01*
X81785096Y-94053232D01*
X81616542Y-93787632D01*
X81616539Y-93787628D01*
X81525712Y-93677838D01*
X80813609Y-94389941D01*
X80697368Y-94240596D01*
X80514477Y-94072232D01*
X80459882Y-94036563D01*
X81175027Y-93321419D01*
X81175026Y-93321417D01*
X80932227Y-93145014D01*
X80932209Y-93145003D01*
X80656552Y-92993459D01*
X80656544Y-92993455D01*
X80364073Y-92877659D01*
X80059379Y-92799426D01*
X80059370Y-92799424D01*
X79747298Y-92760000D01*
X79432701Y-92760000D01*
X79120629Y-92799424D01*
X79120620Y-92799426D01*
X78815926Y-92877659D01*
X78523455Y-92993455D01*
X78523447Y-92993459D01*
X78247787Y-93145004D01*
X78247782Y-93145007D01*
X78004972Y-93321418D01*
X78004971Y-93321419D01*
X78720116Y-94036564D01*
X78665523Y-94072232D01*
X78482632Y-94240596D01*
X78366389Y-94389942D01*
X77704853Y-93728406D01*
X77671368Y-93667083D01*
X77676352Y-93597391D01*
X77704854Y-93553043D01*
X77747898Y-93510000D01*
X76565000Y-93510000D01*
X76565000Y-97010000D01*
X76065000Y-97010000D01*
X76065000Y-95510000D01*
X73565000Y-95510000D01*
X25400500Y-95510000D01*
X25400500Y-95010000D01*
X73565000Y-95010000D01*
X76065000Y-95010000D01*
X76065000Y-93510000D01*
X74017155Y-93510000D01*
X73957627Y-93516401D01*
X73957620Y-93516403D01*
X73822913Y-93566645D01*
X73822906Y-93566649D01*
X73707812Y-93652809D01*
X73707809Y-93652812D01*
X73621649Y-93767906D01*
X73621645Y-93767913D01*
X73571403Y-93902620D01*
X73571401Y-93902627D01*
X73565000Y-93962155D01*
X73565000Y-95010000D01*
X25400500Y-95010000D01*
X25400500Y-92720005D01*
X83434556Y-92720005D01*
X83454310Y-93034004D01*
X83454311Y-93034011D01*
X83513270Y-93343083D01*
X83610497Y-93642316D01*
X83610499Y-93642321D01*
X83744461Y-93927003D01*
X83744464Y-93927009D01*
X83913051Y-94192661D01*
X83913054Y-94192665D01*
X84113606Y-94435090D01*
X84113608Y-94435092D01*
X84113610Y-94435094D01*
X84316803Y-94625905D01*
X84342968Y-94650476D01*
X84342978Y-94650484D01*
X84597504Y-94835408D01*
X84597509Y-94835410D01*
X84597516Y-94835416D01*
X84873234Y-94986994D01*
X84873239Y-94986996D01*
X84873241Y-94986997D01*
X84873242Y-94986998D01*
X85165771Y-95102818D01*
X85165774Y-95102819D01*
X85293861Y-95135706D01*
X85470527Y-95181066D01*
X85536010Y-95189338D01*
X85782670Y-95220499D01*
X85782679Y-95220499D01*
X85782682Y-95220500D01*
X85782684Y-95220500D01*
X86097316Y-95220500D01*
X86097318Y-95220500D01*
X86097321Y-95220499D01*
X86097329Y-95220499D01*
X86283593Y-95196968D01*
X86409473Y-95181066D01*
X86714225Y-95102819D01*
X86714228Y-95102818D01*
X86948660Y-95010000D01*
X92615000Y-95010000D01*
X95115000Y-95010000D01*
X95115000Y-93510000D01*
X93067155Y-93510000D01*
X93007627Y-93516401D01*
X93007620Y-93516403D01*
X92872913Y-93566645D01*
X92872906Y-93566649D01*
X92757812Y-93652809D01*
X92757809Y-93652812D01*
X92671649Y-93767906D01*
X92671645Y-93767913D01*
X92621403Y-93902620D01*
X92621401Y-93902627D01*
X92615000Y-93962155D01*
X92615000Y-95010000D01*
X86948660Y-95010000D01*
X87006757Y-94986998D01*
X87006758Y-94986997D01*
X87006756Y-94986997D01*
X87006766Y-94986994D01*
X87282484Y-94835416D01*
X87492505Y-94682827D01*
X87537026Y-94650481D01*
X87537026Y-94650480D01*
X87537030Y-94650478D01*
X87692896Y-94504107D01*
X87755242Y-94472565D01*
X87777782Y-94470499D01*
X91539871Y-94470499D01*
X91539872Y-94470499D01*
X91599483Y-94464091D01*
X91734331Y-94413796D01*
X91849546Y-94327546D01*
X91935796Y-94212331D01*
X91986091Y-94077483D01*
X91992500Y-94017873D01*
X91992500Y-92720005D01*
X102484556Y-92720005D01*
X102504310Y-93034004D01*
X102504311Y-93034011D01*
X102563270Y-93343083D01*
X102660497Y-93642316D01*
X102660499Y-93642321D01*
X102794461Y-93927003D01*
X102794464Y-93927009D01*
X102963051Y-94192661D01*
X102963054Y-94192665D01*
X103163606Y-94435090D01*
X103163608Y-94435092D01*
X103163610Y-94435094D01*
X103366803Y-94625905D01*
X103392968Y-94650476D01*
X103392978Y-94650484D01*
X103647504Y-94835408D01*
X103647509Y-94835410D01*
X103647516Y-94835416D01*
X103923234Y-94986994D01*
X103923239Y-94986996D01*
X103923241Y-94986997D01*
X103923242Y-94986998D01*
X104215771Y-95102818D01*
X104215774Y-95102819D01*
X104343861Y-95135706D01*
X104520527Y-95181066D01*
X104586010Y-95189338D01*
X104832670Y-95220499D01*
X104832679Y-95220499D01*
X104832682Y-95220500D01*
X104832684Y-95220500D01*
X105147316Y-95220500D01*
X105147318Y-95220500D01*
X105147321Y-95220499D01*
X105147329Y-95220499D01*
X105333593Y-95196968D01*
X105459473Y-95181066D01*
X105764225Y-95102819D01*
X105764228Y-95102818D01*
X106056757Y-94986998D01*
X106056758Y-94986997D01*
X106056756Y-94986997D01*
X106056766Y-94986994D01*
X106332484Y-94835416D01*
X106542505Y-94682827D01*
X106587026Y-94650481D01*
X106587026Y-94650480D01*
X106587030Y-94650478D01*
X106742896Y-94504107D01*
X106805242Y-94472565D01*
X106827782Y-94470499D01*
X110589871Y-94470499D01*
X110589872Y-94470499D01*
X110649483Y-94464091D01*
X110784331Y-94413796D01*
X110899546Y-94327546D01*
X110985796Y-94212331D01*
X111036091Y-94077483D01*
X111042500Y-94017873D01*
X111042499Y-91422128D01*
X111036091Y-91362517D01*
X110985796Y-91227669D01*
X110985795Y-91227668D01*
X110985793Y-91227664D01*
X110899547Y-91112455D01*
X110899544Y-91112452D01*
X110784335Y-91026206D01*
X110784328Y-91026202D01*
X110649482Y-90975908D01*
X110649483Y-90975908D01*
X110589883Y-90969501D01*
X110589881Y-90969500D01*
X110589873Y-90969500D01*
X110589865Y-90969500D01*
X106827782Y-90969500D01*
X106760743Y-90949815D01*
X106742898Y-90935892D01*
X106587031Y-90789523D01*
X106587021Y-90789515D01*
X106332495Y-90604591D01*
X106332488Y-90604586D01*
X106332484Y-90604584D01*
X106056766Y-90453006D01*
X106056763Y-90453004D01*
X106056758Y-90453002D01*
X106056757Y-90453001D01*
X105764228Y-90337181D01*
X105764225Y-90337180D01*
X105459476Y-90258934D01*
X105459463Y-90258932D01*
X105147329Y-90219500D01*
X105147318Y-90219500D01*
X104832682Y-90219500D01*
X104832670Y-90219500D01*
X104520536Y-90258932D01*
X104520523Y-90258934D01*
X104215774Y-90337180D01*
X104215771Y-90337181D01*
X103923242Y-90453001D01*
X103923241Y-90453002D01*
X103647516Y-90604584D01*
X103647504Y-90604591D01*
X103392978Y-90789515D01*
X103392968Y-90789523D01*
X103163608Y-91004907D01*
X103163606Y-91004909D01*
X102963054Y-91247334D01*
X102963051Y-91247338D01*
X102794464Y-91512990D01*
X102794461Y-91512996D01*
X102660499Y-91797678D01*
X102660497Y-91797683D01*
X102563270Y-92096916D01*
X102504311Y-92405988D01*
X102504310Y-92405995D01*
X102484556Y-92719994D01*
X102484556Y-92720005D01*
X91992500Y-92720005D01*
X91992499Y-91422128D01*
X91986091Y-91362517D01*
X91935796Y-91227669D01*
X91935795Y-91227668D01*
X91935793Y-91227664D01*
X91849547Y-91112455D01*
X91849544Y-91112452D01*
X91734335Y-91026206D01*
X91734328Y-91026202D01*
X91599482Y-90975908D01*
X91599483Y-90975908D01*
X91539883Y-90969501D01*
X91539881Y-90969500D01*
X91539873Y-90969500D01*
X91539865Y-90969500D01*
X87777782Y-90969500D01*
X87710743Y-90949815D01*
X87692898Y-90935892D01*
X87537031Y-90789523D01*
X87537021Y-90789515D01*
X87282495Y-90604591D01*
X87282488Y-90604586D01*
X87282484Y-90604584D01*
X87006766Y-90453006D01*
X87006763Y-90453004D01*
X87006758Y-90453002D01*
X87006757Y-90453001D01*
X86714228Y-90337181D01*
X86714225Y-90337180D01*
X86409476Y-90258934D01*
X86409463Y-90258932D01*
X86097329Y-90219500D01*
X86097318Y-90219500D01*
X85782682Y-90219500D01*
X85782670Y-90219500D01*
X85470536Y-90258932D01*
X85470523Y-90258934D01*
X85165774Y-90337180D01*
X85165771Y-90337181D01*
X84873242Y-90453001D01*
X84873241Y-90453002D01*
X84597516Y-90604584D01*
X84597504Y-90604591D01*
X84342978Y-90789515D01*
X84342968Y-90789523D01*
X84113608Y-91004907D01*
X84113606Y-91004909D01*
X83913054Y-91247334D01*
X83913051Y-91247338D01*
X83744464Y-91512990D01*
X83744461Y-91512996D01*
X83610499Y-91797678D01*
X83610497Y-91797683D01*
X83513270Y-92096916D01*
X83454311Y-92405988D01*
X83454310Y-92405995D01*
X83434556Y-92719994D01*
X83434556Y-92720005D01*
X25400500Y-92720005D01*
X25400500Y-82510291D01*
X89675792Y-82510291D01*
X89685675Y-82868822D01*
X89685675Y-82868827D01*
X89685676Y-82868832D01*
X89734941Y-83224103D01*
X89734942Y-83224107D01*
X89822989Y-83571799D01*
X89822989Y-83571801D01*
X89948751Y-83907695D01*
X89948752Y-83907698D01*
X90099841Y-84206256D01*
X90110704Y-84227721D01*
X90306878Y-84527988D01*
X90306880Y-84527990D01*
X90534894Y-84804853D01*
X90534899Y-84804858D01*
X90791985Y-85054955D01*
X90791990Y-85054959D01*
X91075011Y-85275243D01*
X91075014Y-85275245D01*
X91075022Y-85275251D01*
X91380580Y-85463077D01*
X91704946Y-85616149D01*
X91704948Y-85616149D01*
X91704953Y-85616152D01*
X91704952Y-85616152D01*
X92044168Y-85732604D01*
X92044183Y-85732609D01*
X92394172Y-85811043D01*
X92750665Y-85850500D01*
X93019593Y-85850500D01*
X93019595Y-85850500D01*
X93288125Y-85835685D01*
X93641904Y-85776650D01*
X93987041Y-85679054D01*
X94319346Y-85544083D01*
X94634787Y-85373375D01*
X94929534Y-85169002D01*
X95200010Y-84933445D01*
X95442931Y-84669562D01*
X95655348Y-84380559D01*
X95834683Y-84069941D01*
X95978759Y-83741481D01*
X96085827Y-83399164D01*
X96154588Y-83047147D01*
X96184207Y-82689702D01*
X96174324Y-82331168D01*
X96125059Y-81975897D01*
X96037011Y-81628202D01*
X95973480Y-81458519D01*
X95911248Y-81292304D01*
X95911247Y-81292301D01*
X95829142Y-81130058D01*
X95749296Y-80972279D01*
X95553122Y-80672012D01*
X95325107Y-80395148D01*
X95192920Y-80266555D01*
X95068014Y-80145044D01*
X95068009Y-80145040D01*
X94784988Y-79924756D01*
X94784985Y-79924754D01*
X94784982Y-79924752D01*
X94784978Y-79924749D01*
X94479420Y-79736923D01*
X94479419Y-79736922D01*
X94479415Y-79736920D01*
X94155046Y-79583847D01*
X94155047Y-79583847D01*
X93815831Y-79467395D01*
X93815820Y-79467392D01*
X93815817Y-79467391D01*
X93465828Y-79388957D01*
X93465824Y-79388956D01*
X93109335Y-79349500D01*
X92840405Y-79349500D01*
X92661384Y-79359376D01*
X92571874Y-79364315D01*
X92218094Y-79423350D01*
X92218090Y-79423351D01*
X91872960Y-79520945D01*
X91872957Y-79520946D01*
X91540661Y-79655913D01*
X91540648Y-79655919D01*
X91225220Y-79826620D01*
X91225219Y-79826621D01*
X90930460Y-80031002D01*
X90659996Y-80266548D01*
X90659992Y-80266551D01*
X90417067Y-80530440D01*
X90204652Y-80819441D01*
X90204651Y-80819442D01*
X90025317Y-81130058D01*
X89881240Y-81458520D01*
X89881239Y-81458521D01*
X89774173Y-81800832D01*
X89705412Y-82152849D01*
X89705410Y-82152863D01*
X89675793Y-82510287D01*
X89675792Y-82510291D01*
X25400500Y-82510291D01*
X25400500Y-70310291D01*
X30145792Y-70310291D01*
X30155675Y-70668822D01*
X30155675Y-70668827D01*
X30155676Y-70668832D01*
X30204941Y-71024103D01*
X30204942Y-71024107D01*
X30292989Y-71371799D01*
X30292989Y-71371801D01*
X30418751Y-71707695D01*
X30418752Y-71707698D01*
X30569841Y-72006256D01*
X30580704Y-72027721D01*
X30776878Y-72327988D01*
X30776880Y-72327990D01*
X31004894Y-72604853D01*
X31004899Y-72604858D01*
X31261985Y-72854955D01*
X31261990Y-72854959D01*
X31545011Y-73075243D01*
X31545014Y-73075245D01*
X31545022Y-73075251D01*
X31850580Y-73263077D01*
X32174946Y-73416149D01*
X32174948Y-73416149D01*
X32174953Y-73416152D01*
X32174952Y-73416152D01*
X32514168Y-73532604D01*
X32514183Y-73532609D01*
X32864172Y-73611043D01*
X33220665Y-73650500D01*
X33489593Y-73650500D01*
X33489595Y-73650500D01*
X33758125Y-73635685D01*
X34111904Y-73576650D01*
X34457041Y-73479054D01*
X34789346Y-73344083D01*
X35104787Y-73173375D01*
X35399534Y-72969002D01*
X35670010Y-72733445D01*
X35912931Y-72469562D01*
X36125348Y-72180559D01*
X36304683Y-71869941D01*
X36448759Y-71541481D01*
X36555827Y-71199164D01*
X36624588Y-70847147D01*
X36654207Y-70489702D01*
X36649262Y-70310291D01*
X149195792Y-70310291D01*
X149205675Y-70668822D01*
X149205675Y-70668827D01*
X149205676Y-70668832D01*
X149254941Y-71024103D01*
X149254942Y-71024107D01*
X149342989Y-71371799D01*
X149342989Y-71371801D01*
X149468751Y-71707695D01*
X149468752Y-71707698D01*
X149619841Y-72006256D01*
X149630704Y-72027721D01*
X149826878Y-72327988D01*
X149826880Y-72327990D01*
X150054894Y-72604853D01*
X150054899Y-72604858D01*
X150311985Y-72854955D01*
X150311990Y-72854959D01*
X150595011Y-73075243D01*
X150595014Y-73075245D01*
X150595022Y-73075251D01*
X150900580Y-73263077D01*
X151224946Y-73416149D01*
X151224948Y-73416149D01*
X151224953Y-73416152D01*
X151224952Y-73416152D01*
X151564168Y-73532604D01*
X151564183Y-73532609D01*
X151914172Y-73611043D01*
X152270665Y-73650500D01*
X152539593Y-73650500D01*
X152539595Y-73650500D01*
X152808125Y-73635685D01*
X153161904Y-73576650D01*
X153507041Y-73479054D01*
X153839346Y-73344083D01*
X154154787Y-73173375D01*
X154449534Y-72969002D01*
X154720010Y-72733445D01*
X154962931Y-72469562D01*
X155175348Y-72180559D01*
X155354683Y-71869941D01*
X155498759Y-71541481D01*
X155605827Y-71199164D01*
X155674588Y-70847147D01*
X155704207Y-70489702D01*
X155694324Y-70131168D01*
X155645059Y-69775897D01*
X155557011Y-69428202D01*
X155493480Y-69258519D01*
X155431248Y-69092304D01*
X155431247Y-69092301D01*
X155349142Y-68930058D01*
X155269296Y-68772279D01*
X155073122Y-68472012D01*
X154845107Y-68195148D01*
X154712920Y-68066555D01*
X154588014Y-67945044D01*
X154588009Y-67945040D01*
X154304988Y-67724756D01*
X154304985Y-67724754D01*
X154304982Y-67724752D01*
X154304978Y-67724749D01*
X153999420Y-67536923D01*
X153999419Y-67536922D01*
X153999415Y-67536920D01*
X153675046Y-67383847D01*
X153675047Y-67383847D01*
X153335831Y-67267395D01*
X153335820Y-67267392D01*
X153335817Y-67267391D01*
X152985828Y-67188957D01*
X152985824Y-67188956D01*
X152629335Y-67149500D01*
X152360405Y-67149500D01*
X152181385Y-67159376D01*
X152091874Y-67164315D01*
X151738094Y-67223350D01*
X151738090Y-67223351D01*
X151392960Y-67320945D01*
X151392957Y-67320946D01*
X151060661Y-67455913D01*
X151060648Y-67455919D01*
X150745220Y-67626620D01*
X150745219Y-67626621D01*
X150450460Y-67831002D01*
X150179996Y-68066548D01*
X150179992Y-68066551D01*
X149937067Y-68330440D01*
X149724652Y-68619441D01*
X149724651Y-68619442D01*
X149545317Y-68930058D01*
X149401240Y-69258520D01*
X149401239Y-69258521D01*
X149294173Y-69600832D01*
X149225412Y-69952849D01*
X149225410Y-69952863D01*
X149195793Y-70310287D01*
X149195792Y-70310291D01*
X36649262Y-70310291D01*
X36644324Y-70131168D01*
X36595059Y-69775897D01*
X36507011Y-69428202D01*
X36443480Y-69258519D01*
X36381248Y-69092304D01*
X36381247Y-69092301D01*
X36299142Y-68930058D01*
X36219296Y-68772279D01*
X36023122Y-68472012D01*
X35900136Y-68322678D01*
X108400823Y-68322678D01*
X109074351Y-69125355D01*
X109074362Y-69125366D01*
X109117535Y-69166861D01*
X109117537Y-69166863D01*
X109242611Y-69237758D01*
X109242614Y-69237759D01*
X109382610Y-69270547D01*
X109526165Y-69262569D01*
X109661657Y-69214466D01*
X109661663Y-69214463D01*
X109711387Y-69181096D01*
X111280116Y-67864774D01*
X110315934Y-66715708D01*
X108400823Y-68322678D01*
X35900136Y-68322678D01*
X35795107Y-68195148D01*
X35662920Y-68066555D01*
X35538014Y-67945044D01*
X35538009Y-67945040D01*
X35254988Y-67724756D01*
X35254985Y-67724754D01*
X35254982Y-67724752D01*
X35254978Y-67724749D01*
X34949420Y-67536923D01*
X34949419Y-67536922D01*
X34949415Y-67536920D01*
X34625046Y-67383847D01*
X34625047Y-67383847D01*
X34285831Y-67267395D01*
X34285820Y-67267392D01*
X34285817Y-67267391D01*
X33935828Y-67188957D01*
X33935824Y-67188956D01*
X33579335Y-67149500D01*
X33310405Y-67149500D01*
X33131385Y-67159376D01*
X33041874Y-67164315D01*
X32688094Y-67223350D01*
X32688090Y-67223351D01*
X32342960Y-67320945D01*
X32342957Y-67320946D01*
X32010661Y-67455913D01*
X32010648Y-67455919D01*
X31695220Y-67626620D01*
X31695219Y-67626621D01*
X31400460Y-67831002D01*
X31129996Y-68066548D01*
X31129992Y-68066551D01*
X30887067Y-68330440D01*
X30674652Y-68619441D01*
X30674651Y-68619442D01*
X30495317Y-68930058D01*
X30351240Y-69258520D01*
X30351239Y-69258521D01*
X30244173Y-69600832D01*
X30175412Y-69952849D01*
X30175410Y-69952863D01*
X30145793Y-70310287D01*
X30145792Y-70310291D01*
X25400500Y-70310291D01*
X25400500Y-66808192D01*
X107316446Y-66808192D01*
X107324425Y-66951746D01*
X107372527Y-67087240D01*
X107405895Y-67136965D01*
X108079430Y-67939654D01*
X109994542Y-66332685D01*
X109030359Y-65183618D01*
X107461637Y-66499934D01*
X107420131Y-66543120D01*
X107349234Y-66668198D01*
X107316446Y-66808192D01*
X25400500Y-66808192D01*
X25400500Y-58756473D01*
X63715034Y-58756473D01*
X64621184Y-59516823D01*
X64621185Y-59516823D01*
X64615880Y-59456183D01*
X64629647Y-59387683D01*
X64678262Y-59337500D01*
X64728601Y-59321848D01*
X65657197Y-59240606D01*
X65657197Y-59484623D01*
X65698113Y-59729819D01*
X65701151Y-59738669D01*
X64700981Y-59826173D01*
X64730952Y-59983287D01*
X64828160Y-60282461D01*
X64828162Y-60282466D01*
X64962097Y-60567090D01*
X64962100Y-60567096D01*
X65130652Y-60832693D01*
X65331173Y-61075081D01*
X65560484Y-61290419D01*
X65560494Y-61290427D01*
X65814969Y-61475314D01*
X65814987Y-61475325D01*
X66090644Y-61626869D01*
X66090652Y-61626873D01*
X66383123Y-61742669D01*
X66687817Y-61820902D01*
X66687826Y-61820904D01*
X66900689Y-61847795D01*
X66964733Y-61875726D01*
X67003509Y-61933848D01*
X67004706Y-62003708D01*
X66968326Y-62062782D01*
X66826205Y-62191322D01*
X66632204Y-62420789D01*
X66632202Y-62420791D01*
X66470512Y-62674075D01*
X66408249Y-62808250D01*
X66344028Y-62946643D01*
X66316892Y-63034120D01*
X66255000Y-63233638D01*
X66230150Y-63380961D01*
X66205020Y-63529945D01*
X66196056Y-63798072D01*
X66194979Y-63830270D01*
X66225056Y-64129245D01*
X66225057Y-64129252D01*
X66294714Y-64421544D01*
X66294717Y-64421556D01*
X66402712Y-64701956D01*
X66402719Y-64701971D01*
X66547125Y-64965478D01*
X66547129Y-64965484D01*
X66638442Y-65089415D01*
X66725369Y-65207393D01*
X66833196Y-65318885D01*
X66934266Y-65423391D01*
X66934273Y-65423397D01*
X66963073Y-65446140D01*
X67170092Y-65609621D01*
X67428633Y-65762755D01*
X67705279Y-65880063D01*
X67705282Y-65880063D01*
X67705285Y-65880065D01*
X67850185Y-65919757D01*
X67995092Y-65959451D01*
X68292901Y-65999503D01*
X68292906Y-65999503D01*
X68518187Y-65999503D01*
X68681659Y-65988559D01*
X68742965Y-65984455D01*
X69037433Y-65924602D01*
X69321297Y-65826034D01*
X69589489Y-65690510D01*
X69837226Y-65520449D01*
X70060085Y-65318885D01*
X70254089Y-65089415D01*
X70415777Y-64836135D01*
X70542264Y-64563563D01*
X70631292Y-64276565D01*
X70681272Y-63980261D01*
X70691313Y-63679939D01*
X70661235Y-63380958D01*
X70591576Y-63088654D01*
X70483577Y-62808243D01*
X70339167Y-62544728D01*
X70160923Y-62302813D01*
X69952025Y-62086814D01*
X69952019Y-62086809D01*
X69952018Y-62086808D01*
X69788870Y-61957971D01*
X69716200Y-61900585D01*
X69457659Y-61747451D01*
X69181013Y-61630143D01*
X69181006Y-61630140D01*
X68891205Y-61550756D01*
X68891202Y-61550755D01*
X68891200Y-61550755D01*
X68779792Y-61535771D01*
X68715975Y-61507327D01*
X68708735Y-61496283D01*
X71148816Y-61496283D01*
X71168570Y-61810282D01*
X71168571Y-61810289D01*
X71227530Y-62119361D01*
X71324757Y-62418594D01*
X71324759Y-62418599D01*
X71458721Y-62703281D01*
X71458724Y-62703287D01*
X71627311Y-62968939D01*
X71627314Y-62968943D01*
X71827866Y-63211368D01*
X71827868Y-63211370D01*
X71827870Y-63211372D01*
X72008464Y-63380961D01*
X72057228Y-63426754D01*
X72057238Y-63426762D01*
X72311764Y-63611686D01*
X72311769Y-63611688D01*
X72311776Y-63611694D01*
X72587494Y-63763272D01*
X72587499Y-63763274D01*
X72587501Y-63763275D01*
X72587502Y-63763276D01*
X72880031Y-63879096D01*
X72880034Y-63879097D01*
X73184783Y-63957343D01*
X73184787Y-63957344D01*
X73250270Y-63965616D01*
X73496930Y-63996777D01*
X73496939Y-63996777D01*
X73496942Y-63996778D01*
X73496944Y-63996778D01*
X73811578Y-63996778D01*
X73844194Y-63992657D01*
X73913170Y-64003782D01*
X73939439Y-64020686D01*
X76818812Y-66436766D01*
X76868596Y-66470174D01*
X76868599Y-66470175D01*
X77004223Y-66518324D01*
X77011790Y-66518744D01*
X77147924Y-66526312D01*
X77288055Y-66493493D01*
X77413261Y-66422522D01*
X77456488Y-66380978D01*
X78730872Y-64862225D01*
X109413383Y-64862225D01*
X110698958Y-66394315D01*
X111663138Y-67543380D01*
X112569288Y-66783029D01*
X112508648Y-66777724D01*
X112443580Y-66752271D01*
X112402601Y-66695680D01*
X112395928Y-66643389D01*
X112477587Y-65710008D01*
X112607807Y-65742985D01*
X112793502Y-65758372D01*
X112917588Y-65758372D01*
X112975687Y-65753557D01*
X112887778Y-66758371D01*
X112887779Y-66758372D01*
X113012830Y-66758372D01*
X113012843Y-66758371D01*
X113324915Y-66718947D01*
X113324924Y-66718945D01*
X113629618Y-66640712D01*
X113922089Y-66524916D01*
X113922097Y-66524912D01*
X114197754Y-66373368D01*
X114197772Y-66373357D01*
X114452247Y-66188470D01*
X114452257Y-66188462D01*
X114681568Y-65973124D01*
X114882089Y-65730736D01*
X115050641Y-65465139D01*
X115050644Y-65465133D01*
X115184579Y-65180509D01*
X115184581Y-65180504D01*
X115261168Y-64944795D01*
X115300605Y-64887120D01*
X115364964Y-64859921D01*
X115433810Y-64871836D01*
X115485286Y-64919080D01*
X115487828Y-64923499D01*
X115499499Y-64944795D01*
X115510834Y-64965479D01*
X115510838Y-64965485D01*
X115602151Y-65089416D01*
X115689078Y-65207394D01*
X115897976Y-65423393D01*
X116133801Y-65609622D01*
X116392342Y-65762756D01*
X116668988Y-65880064D01*
X116668991Y-65880064D01*
X116668994Y-65880066D01*
X116813894Y-65919757D01*
X116958801Y-65959452D01*
X117256610Y-65999504D01*
X117256615Y-65999504D01*
X117481896Y-65999504D01*
X117645368Y-65988560D01*
X117706674Y-65984456D01*
X118001142Y-65924603D01*
X118285006Y-65826035D01*
X118553198Y-65690511D01*
X118800935Y-65520450D01*
X119023794Y-65318886D01*
X119217798Y-65089416D01*
X119379486Y-64836136D01*
X119505973Y-64563564D01*
X119595001Y-64276566D01*
X119644981Y-63980262D01*
X119655022Y-63679940D01*
X119624944Y-63380959D01*
X119555285Y-63088655D01*
X119447286Y-62808244D01*
X119302876Y-62544729D01*
X119124632Y-62302814D01*
X118915734Y-62086815D01*
X118915733Y-62086814D01*
X118915727Y-62086809D01*
X118679910Y-61900587D01*
X118679911Y-61900587D01*
X118679909Y-61900586D01*
X118421368Y-61747452D01*
X118144722Y-61630144D01*
X118144715Y-61630141D01*
X117854914Y-61550757D01*
X117854911Y-61550756D01*
X117854909Y-61550756D01*
X117557100Y-61510704D01*
X117331822Y-61510704D01*
X117331814Y-61510704D01*
X117107038Y-61525751D01*
X117107029Y-61525753D01*
X116812565Y-61585605D01*
X116528702Y-61684173D01*
X116528699Y-61684175D01*
X116260517Y-61819693D01*
X116012773Y-61989759D01*
X115789917Y-62191320D01*
X115595913Y-62420790D01*
X115595911Y-62420792D01*
X115434221Y-62674076D01*
X115307741Y-62946635D01*
X115307738Y-62946643D01*
X115307732Y-62946658D01*
X115280601Y-63034120D01*
X115241938Y-63092317D01*
X115177949Y-63120373D01*
X115108949Y-63109380D01*
X115056847Y-63062827D01*
X115052582Y-63054982D01*
X115052518Y-63055018D01*
X115050641Y-63051604D01*
X114882089Y-62786007D01*
X114681568Y-62543619D01*
X114452257Y-62328281D01*
X114452247Y-62328273D01*
X114197772Y-62143386D01*
X114197754Y-62143375D01*
X113922097Y-61991831D01*
X113922089Y-61991827D01*
X113629618Y-61876031D01*
X113324924Y-61797798D01*
X113324915Y-61797796D01*
X113321806Y-61797403D01*
X113321805Y-61797404D01*
X113233500Y-62806734D01*
X113103283Y-62773759D01*
X112917588Y-62758372D01*
X112793502Y-62758372D01*
X112735401Y-62763186D01*
X112823311Y-61758372D01*
X112698246Y-61758372D01*
X112386174Y-61797796D01*
X112386165Y-61797798D01*
X112081471Y-61876031D01*
X111789000Y-61991827D01*
X111788992Y-61991831D01*
X111513335Y-62143375D01*
X111513317Y-62143386D01*
X111258842Y-62328273D01*
X111258832Y-62328281D01*
X111029521Y-62543619D01*
X110829000Y-62786007D01*
X110660448Y-63051604D01*
X110660445Y-63051610D01*
X110526510Y-63336234D01*
X110526508Y-63336239D01*
X110429300Y-63635413D01*
X110399329Y-63792526D01*
X111399500Y-63880029D01*
X111396461Y-63888882D01*
X111355545Y-64134078D01*
X111355545Y-64378093D01*
X110426949Y-64296852D01*
X110361880Y-64271400D01*
X110320901Y-64214809D01*
X110314228Y-64162516D01*
X110319533Y-64101876D01*
X109413383Y-64862225D01*
X78730872Y-64862225D01*
X79125000Y-64392521D01*
X79158408Y-64342737D01*
X79206558Y-64207109D01*
X79214546Y-64063409D01*
X79181726Y-63923278D01*
X79110756Y-63798072D01*
X79069212Y-63754845D01*
X76982287Y-62003708D01*
X76188274Y-61337452D01*
X76149572Y-61279280D01*
X76144225Y-61250246D01*
X76139949Y-61182274D01*
X76139948Y-61182266D01*
X76139948Y-61182263D01*
X76080991Y-60873199D01*
X75983763Y-60573963D01*
X75971591Y-60548097D01*
X75849798Y-60289274D01*
X75849797Y-60289271D01*
X75709555Y-60068284D01*
X75681208Y-60023616D01*
X75681205Y-60023612D01*
X75480653Y-59781187D01*
X75480651Y-59781185D01*
X75366800Y-59674271D01*
X75251290Y-59565800D01*
X75251287Y-59565798D01*
X75251281Y-59565793D01*
X74996755Y-59380869D01*
X74996748Y-59380864D01*
X74996744Y-59380862D01*
X74721026Y-59229284D01*
X74721023Y-59229282D01*
X74721018Y-59229280D01*
X74721017Y-59229279D01*
X74428488Y-59113459D01*
X74428485Y-59113458D01*
X74123736Y-59035212D01*
X74123723Y-59035210D01*
X73811589Y-58995778D01*
X73811578Y-58995778D01*
X73496942Y-58995778D01*
X73496930Y-58995778D01*
X73184796Y-59035210D01*
X73184783Y-59035212D01*
X72880034Y-59113458D01*
X72880031Y-59113459D01*
X72587502Y-59229279D01*
X72587501Y-59229280D01*
X72311776Y-59380862D01*
X72311764Y-59380869D01*
X72057238Y-59565793D01*
X72057228Y-59565801D01*
X71827868Y-59781185D01*
X71827866Y-59781187D01*
X71627314Y-60023612D01*
X71627311Y-60023616D01*
X71458724Y-60289268D01*
X71458721Y-60289274D01*
X71324759Y-60573956D01*
X71324757Y-60573961D01*
X71227530Y-60873194D01*
X71168571Y-61182266D01*
X71168570Y-61182273D01*
X71148816Y-61496272D01*
X71148816Y-61496283D01*
X68708735Y-61496283D01*
X68677667Y-61448895D01*
X68677031Y-61379028D01*
X68714268Y-61319909D01*
X68723438Y-61312558D01*
X68753905Y-61290422D01*
X68753909Y-61290419D01*
X68983220Y-61075081D01*
X69183741Y-60832693D01*
X69352293Y-60567096D01*
X69352296Y-60567090D01*
X69486231Y-60282466D01*
X69486233Y-60282461D01*
X69583441Y-59983287D01*
X69642388Y-59674278D01*
X69642389Y-59674271D01*
X69660128Y-59392304D01*
X69660127Y-59392304D01*
X68657197Y-59480049D01*
X68657197Y-59236035D01*
X68616281Y-58990839D01*
X68613241Y-58981986D01*
X69613411Y-58894483D01*
X69583444Y-58737379D01*
X69486233Y-58438196D01*
X69486231Y-58438191D01*
X69352296Y-58153567D01*
X69352293Y-58153561D01*
X69183741Y-57887964D01*
X68983220Y-57645576D01*
X68753909Y-57430238D01*
X68753899Y-57430230D01*
X68499424Y-57245343D01*
X68499406Y-57245332D01*
X68223749Y-57093788D01*
X68223741Y-57093784D01*
X67931270Y-56977988D01*
X67626576Y-56899755D01*
X67626567Y-56899753D01*
X67314495Y-56860329D01*
X67189430Y-56860329D01*
X67277339Y-57865143D01*
X67219240Y-57860329D01*
X67095154Y-57860329D01*
X66909459Y-57875716D01*
X66779240Y-57908692D01*
X66697580Y-56975310D01*
X66711347Y-56906810D01*
X66759962Y-56856627D01*
X66810301Y-56840975D01*
X66870941Y-56835669D01*
X66870942Y-56835669D01*
X65964791Y-56075317D01*
X64969614Y-57261325D01*
X64969613Y-57261326D01*
X63715034Y-58756473D01*
X25400500Y-58756473D01*
X25400500Y-56810508D01*
X61618098Y-56810508D01*
X61650886Y-56950502D01*
X61721783Y-57075580D01*
X61763284Y-57118760D01*
X63332013Y-58435080D01*
X64296194Y-57286014D01*
X62381082Y-55679045D01*
X61707547Y-56481735D01*
X61674179Y-56531460D01*
X61626077Y-56666954D01*
X61618098Y-56810508D01*
X25400500Y-56810508D01*
X25400500Y-55296021D01*
X62702475Y-55296021D01*
X64617586Y-56902991D01*
X65581768Y-55753925D01*
X64013039Y-54437604D01*
X63963315Y-54404237D01*
X63963309Y-54404234D01*
X63827817Y-54356131D01*
X63684262Y-54348153D01*
X63544266Y-54380941D01*
X63544263Y-54380942D01*
X63419189Y-54451837D01*
X63419187Y-54451839D01*
X63376014Y-54493334D01*
X63376003Y-54493345D01*
X62702475Y-55296021D01*
X25400500Y-55296021D01*
X25400500Y-46511370D01*
X49121888Y-46511370D01*
X50028038Y-47271720D01*
X50028039Y-47271720D01*
X50022734Y-47211080D01*
X50036501Y-47142580D01*
X50085116Y-47092397D01*
X50135455Y-47076745D01*
X51064051Y-46995503D01*
X51064051Y-47239520D01*
X51104967Y-47484716D01*
X51108005Y-47493566D01*
X50107835Y-47581070D01*
X50137806Y-47738184D01*
X50235014Y-48037358D01*
X50235016Y-48037363D01*
X50368951Y-48321987D01*
X50368954Y-48321993D01*
X50537506Y-48587590D01*
X50738027Y-48829978D01*
X50967338Y-49045316D01*
X50967348Y-49045324D01*
X51221823Y-49230211D01*
X51221841Y-49230222D01*
X51497498Y-49381766D01*
X51497506Y-49381770D01*
X51789977Y-49497566D01*
X52094671Y-49575799D01*
X52094680Y-49575801D01*
X52307543Y-49602692D01*
X52371587Y-49630623D01*
X52410363Y-49688745D01*
X52411560Y-49758605D01*
X52375180Y-49817679D01*
X52233059Y-49946219D01*
X52039058Y-50175686D01*
X52039056Y-50175688D01*
X51877366Y-50428972D01*
X51770431Y-50659413D01*
X51750882Y-50701540D01*
X51723747Y-50789016D01*
X51661854Y-50988535D01*
X51629280Y-51181651D01*
X51611874Y-51284842D01*
X51602910Y-51552969D01*
X51601833Y-51585167D01*
X51631910Y-51884142D01*
X51631911Y-51884149D01*
X51701568Y-52176441D01*
X51701571Y-52176453D01*
X51809566Y-52456853D01*
X51809573Y-52456868D01*
X51953979Y-52720375D01*
X51953983Y-52720381D01*
X52045296Y-52844312D01*
X52132223Y-52962290D01*
X52302985Y-53138857D01*
X52341120Y-53178288D01*
X52341127Y-53178294D01*
X52388684Y-53215849D01*
X52576946Y-53364518D01*
X52835487Y-53517652D01*
X53112133Y-53634960D01*
X53112136Y-53634960D01*
X53112139Y-53634962D01*
X53257039Y-53674654D01*
X53401946Y-53714348D01*
X53699755Y-53754400D01*
X53699760Y-53754400D01*
X53925041Y-53754400D01*
X54088513Y-53743456D01*
X54149819Y-53739352D01*
X54444287Y-53679499D01*
X54728151Y-53580931D01*
X54996343Y-53445407D01*
X55244080Y-53275346D01*
X55466939Y-53073782D01*
X55660943Y-52844312D01*
X55822631Y-52591032D01*
X55949118Y-52318460D01*
X56038146Y-52031462D01*
X56088126Y-51735158D01*
X56098167Y-51434836D01*
X56068089Y-51135855D01*
X55998430Y-50843551D01*
X55890431Y-50563140D01*
X55746021Y-50299625D01*
X55567777Y-50057710D01*
X55358879Y-49841711D01*
X55358872Y-49841705D01*
X55195724Y-49712868D01*
X55123054Y-49655482D01*
X54864513Y-49502348D01*
X54587867Y-49385040D01*
X54587860Y-49385037D01*
X54298059Y-49305653D01*
X54298056Y-49305652D01*
X54298054Y-49305652D01*
X54186646Y-49290668D01*
X54122829Y-49262224D01*
X54115589Y-49251180D01*
X56555670Y-49251180D01*
X56575424Y-49565179D01*
X56575425Y-49565186D01*
X56592650Y-49655482D01*
X56625613Y-49828282D01*
X56634384Y-49874258D01*
X56731611Y-50173491D01*
X56731613Y-50173496D01*
X56865575Y-50458178D01*
X56865578Y-50458184D01*
X57034165Y-50723836D01*
X57034168Y-50723840D01*
X57234720Y-50966265D01*
X57234722Y-50966267D01*
X57234724Y-50966269D01*
X57367693Y-51091135D01*
X57464082Y-51181651D01*
X57464092Y-51181659D01*
X57718618Y-51366583D01*
X57718623Y-51366585D01*
X57718630Y-51366591D01*
X57994348Y-51518169D01*
X57994353Y-51518171D01*
X57994355Y-51518172D01*
X57994356Y-51518173D01*
X58286885Y-51633993D01*
X58286888Y-51633994D01*
X58591637Y-51712240D01*
X58591641Y-51712241D01*
X58657124Y-51720513D01*
X58903784Y-51751674D01*
X58903793Y-51751674D01*
X58903796Y-51751675D01*
X58903798Y-51751675D01*
X59218432Y-51751675D01*
X59251048Y-51747554D01*
X59320024Y-51758679D01*
X59346293Y-51775583D01*
X62225666Y-54191663D01*
X62275450Y-54225071D01*
X62275453Y-54225072D01*
X62411077Y-54273221D01*
X62418644Y-54273641D01*
X62554778Y-54281209D01*
X62694909Y-54248390D01*
X62820115Y-54177419D01*
X62863342Y-54135875D01*
X64531854Y-52147418D01*
X64565262Y-52097634D01*
X64613412Y-51962006D01*
X64621400Y-51818306D01*
X64588580Y-51678175D01*
X64517610Y-51552969D01*
X64476066Y-51509742D01*
X62745601Y-50057710D01*
X61595128Y-49092349D01*
X61556426Y-49034177D01*
X61551079Y-49005143D01*
X61546803Y-48937171D01*
X61546802Y-48937163D01*
X61546802Y-48937160D01*
X61487845Y-48628096D01*
X61390617Y-48328860D01*
X61378445Y-48302994D01*
X61283502Y-48101229D01*
X61256651Y-48044168D01*
X61185286Y-47931715D01*
X61088062Y-47778513D01*
X61088059Y-47778509D01*
X60887507Y-47536084D01*
X60887505Y-47536082D01*
X60804867Y-47458479D01*
X60658144Y-47320697D01*
X60658141Y-47320695D01*
X60658135Y-47320690D01*
X60403609Y-47135766D01*
X60403602Y-47135761D01*
X60403598Y-47135759D01*
X60127880Y-46984181D01*
X60127877Y-46984179D01*
X60127872Y-46984177D01*
X60127871Y-46984176D01*
X59835342Y-46868356D01*
X59835339Y-46868355D01*
X59530590Y-46790109D01*
X59530577Y-46790107D01*
X59218443Y-46750675D01*
X59218432Y-46750675D01*
X58903796Y-46750675D01*
X58903784Y-46750675D01*
X58591650Y-46790107D01*
X58591637Y-46790109D01*
X58286888Y-46868355D01*
X58286885Y-46868356D01*
X57994356Y-46984176D01*
X57994355Y-46984177D01*
X57718630Y-47135759D01*
X57718618Y-47135766D01*
X57464092Y-47320690D01*
X57464082Y-47320698D01*
X57234722Y-47536082D01*
X57234720Y-47536084D01*
X57034168Y-47778509D01*
X57034165Y-47778513D01*
X56865578Y-48044165D01*
X56865575Y-48044171D01*
X56731613Y-48328853D01*
X56731611Y-48328858D01*
X56634384Y-48628091D01*
X56575425Y-48937163D01*
X56575424Y-48937170D01*
X56555670Y-49251169D01*
X56555670Y-49251180D01*
X54115589Y-49251180D01*
X54084521Y-49203792D01*
X54083885Y-49133925D01*
X54121122Y-49074806D01*
X54130292Y-49067455D01*
X54160759Y-49045319D01*
X54160763Y-49045316D01*
X54390074Y-48829978D01*
X54590595Y-48587590D01*
X54759147Y-48321993D01*
X54759150Y-48321987D01*
X54893085Y-48037363D01*
X54893087Y-48037358D01*
X54990295Y-47738184D01*
X55049242Y-47429175D01*
X55049243Y-47429168D01*
X55066982Y-47147201D01*
X55066981Y-47147201D01*
X54064051Y-47234946D01*
X54064051Y-46990932D01*
X54023135Y-46745736D01*
X54020095Y-46736883D01*
X55020265Y-46649380D01*
X54990298Y-46492276D01*
X54893087Y-46193093D01*
X54893085Y-46193088D01*
X54759150Y-45908464D01*
X54759147Y-45908458D01*
X54590595Y-45642861D01*
X54390074Y-45400473D01*
X54160763Y-45185135D01*
X54160753Y-45185127D01*
X53906278Y-45000240D01*
X53906260Y-45000229D01*
X53630603Y-44848685D01*
X53630595Y-44848681D01*
X53338124Y-44732885D01*
X53033430Y-44654652D01*
X53033421Y-44654650D01*
X52721349Y-44615226D01*
X52596284Y-44615226D01*
X52684193Y-45620040D01*
X52626094Y-45615226D01*
X52502008Y-45615226D01*
X52316313Y-45630613D01*
X52186094Y-45663589D01*
X52104434Y-44730207D01*
X52118201Y-44661707D01*
X52166816Y-44611524D01*
X52217155Y-44595872D01*
X52277795Y-44590566D01*
X52277796Y-44590566D01*
X51371645Y-43830214D01*
X50376468Y-45016222D01*
X50376467Y-45016223D01*
X49121888Y-46511370D01*
X25400500Y-46511370D01*
X25400500Y-44565405D01*
X47024952Y-44565405D01*
X47057740Y-44705399D01*
X47128637Y-44830477D01*
X47170138Y-44873657D01*
X48738867Y-46189977D01*
X49703048Y-45040911D01*
X47787936Y-43433942D01*
X47114401Y-44236632D01*
X47081033Y-44286357D01*
X47032931Y-44421851D01*
X47024952Y-44565405D01*
X25400500Y-44565405D01*
X25400500Y-43050918D01*
X48109329Y-43050918D01*
X50024440Y-44657888D01*
X50988622Y-43508822D01*
X49560270Y-42310291D01*
X65145792Y-42310291D01*
X65155675Y-42668822D01*
X65155675Y-42668827D01*
X65155676Y-42668832D01*
X65204941Y-43024103D01*
X65204942Y-43024107D01*
X65292989Y-43371799D01*
X65292989Y-43371801D01*
X65418751Y-43707695D01*
X65418752Y-43707698D01*
X65569841Y-44006256D01*
X65580704Y-44027721D01*
X65776878Y-44327988D01*
X66004893Y-44604852D01*
X66004894Y-44604853D01*
X66004899Y-44604858D01*
X66261985Y-44854955D01*
X66261990Y-44854959D01*
X66545011Y-45075243D01*
X66545014Y-45075245D01*
X66545022Y-45075251D01*
X66850580Y-45263077D01*
X67174946Y-45416149D01*
X67174948Y-45416149D01*
X67174953Y-45416152D01*
X67174952Y-45416152D01*
X67514168Y-45532604D01*
X67514183Y-45532609D01*
X67864172Y-45611043D01*
X68220665Y-45650500D01*
X68489593Y-45650500D01*
X68489595Y-45650500D01*
X68758125Y-45635685D01*
X69111904Y-45576650D01*
X69457041Y-45479054D01*
X69789346Y-45344083D01*
X70104787Y-45173375D01*
X70399534Y-44969002D01*
X70670010Y-44733445D01*
X70912931Y-44469562D01*
X71125348Y-44180559D01*
X71304683Y-43869941D01*
X71448759Y-43541481D01*
X71555827Y-43199164D01*
X71624588Y-42847147D01*
X71654207Y-42489702D01*
X71644324Y-42131168D01*
X71595059Y-41775897D01*
X71507011Y-41428202D01*
X71492654Y-41389857D01*
X71418482Y-41191751D01*
X71381248Y-41092303D01*
X71219296Y-40772279D01*
X71023122Y-40472012D01*
X70795107Y-40195148D01*
X70669908Y-40073353D01*
X70538014Y-39945044D01*
X70538009Y-39945040D01*
X70254988Y-39724756D01*
X70254985Y-39724754D01*
X70254982Y-39724752D01*
X70254978Y-39724749D01*
X69949420Y-39536923D01*
X69949419Y-39536922D01*
X69949415Y-39536920D01*
X69625046Y-39383847D01*
X69625047Y-39383847D01*
X69285831Y-39267395D01*
X69285820Y-39267392D01*
X69285817Y-39267391D01*
X68939282Y-39189731D01*
X68935824Y-39188956D01*
X68579335Y-39149500D01*
X68310405Y-39149500D01*
X68131385Y-39159376D01*
X68041874Y-39164315D01*
X67688094Y-39223350D01*
X67688090Y-39223351D01*
X67342960Y-39320945D01*
X67342957Y-39320946D01*
X67010661Y-39455913D01*
X67010648Y-39455919D01*
X66695220Y-39626620D01*
X66695219Y-39626621D01*
X66400460Y-39831002D01*
X66129996Y-40066548D01*
X66129992Y-40066551D01*
X65887067Y-40330440D01*
X65674652Y-40619441D01*
X65674651Y-40619442D01*
X65495317Y-40930058D01*
X65351240Y-41258520D01*
X65351239Y-41258521D01*
X65244173Y-41600832D01*
X65175412Y-41952849D01*
X65175410Y-41952863D01*
X65145793Y-42310287D01*
X65145792Y-42310291D01*
X49560270Y-42310291D01*
X49419893Y-42192501D01*
X49370169Y-42159134D01*
X49370163Y-42159131D01*
X49234671Y-42111028D01*
X49091116Y-42103050D01*
X48951120Y-42135838D01*
X48951117Y-42135839D01*
X48826043Y-42206734D01*
X48826041Y-42206736D01*
X48782868Y-42248231D01*
X48782857Y-42248242D01*
X48109329Y-43050918D01*
X25400500Y-43050918D01*
X25400500Y-34266263D01*
X34528741Y-34266263D01*
X35434891Y-35026613D01*
X35434892Y-35026613D01*
X35429587Y-34965973D01*
X35443354Y-34897473D01*
X35491969Y-34847290D01*
X35542308Y-34831638D01*
X36470904Y-34750396D01*
X36470904Y-34994413D01*
X36511820Y-35239609D01*
X36514858Y-35248459D01*
X35514688Y-35335963D01*
X35544659Y-35493077D01*
X35641867Y-35792251D01*
X35641869Y-35792256D01*
X35775804Y-36076880D01*
X35775807Y-36076886D01*
X35944359Y-36342483D01*
X36144880Y-36584871D01*
X36374191Y-36800209D01*
X36374201Y-36800217D01*
X36628676Y-36985104D01*
X36628694Y-36985115D01*
X36904351Y-37136659D01*
X36904359Y-37136663D01*
X37196830Y-37252459D01*
X37501524Y-37330692D01*
X37501533Y-37330694D01*
X37714396Y-37357585D01*
X37778440Y-37385516D01*
X37817216Y-37443638D01*
X37818413Y-37513498D01*
X37782033Y-37572572D01*
X37639912Y-37701112D01*
X37445911Y-37930579D01*
X37445909Y-37930581D01*
X37284219Y-38183865D01*
X37157739Y-38456424D01*
X37157735Y-38456433D01*
X37130599Y-38543911D01*
X37068707Y-38743428D01*
X37043857Y-38890752D01*
X37018727Y-39039735D01*
X37009763Y-39307862D01*
X37008686Y-39340060D01*
X37038763Y-39639035D01*
X37038764Y-39639042D01*
X37108421Y-39931334D01*
X37108424Y-39931346D01*
X37216419Y-40211746D01*
X37216426Y-40211761D01*
X37360832Y-40475268D01*
X37360836Y-40475274D01*
X37452367Y-40599500D01*
X37539076Y-40717183D01*
X37645391Y-40827112D01*
X37747973Y-40933181D01*
X37747980Y-40933187D01*
X37800840Y-40974930D01*
X37983799Y-41119411D01*
X38242340Y-41272545D01*
X38518986Y-41389853D01*
X38518989Y-41389853D01*
X38518992Y-41389855D01*
X38658968Y-41428198D01*
X38808799Y-41469241D01*
X39106608Y-41509293D01*
X39106613Y-41509293D01*
X39331894Y-41509293D01*
X39495366Y-41498348D01*
X39556672Y-41494245D01*
X39851140Y-41434392D01*
X40135004Y-41335824D01*
X40403196Y-41200300D01*
X40650933Y-41030239D01*
X40873792Y-40828675D01*
X41067796Y-40599205D01*
X41229484Y-40345925D01*
X41355971Y-40073353D01*
X41444999Y-39786355D01*
X41494979Y-39490051D01*
X41505020Y-39189729D01*
X41474942Y-38890748D01*
X41405283Y-38598444D01*
X41297284Y-38318033D01*
X41152874Y-38054518D01*
X40974630Y-37812603D01*
X40765732Y-37596604D01*
X40765727Y-37596600D01*
X40765725Y-37596598D01*
X40602577Y-37467761D01*
X40529907Y-37410375D01*
X40271366Y-37257241D01*
X39994720Y-37139933D01*
X39994713Y-37139930D01*
X39704912Y-37060546D01*
X39704909Y-37060545D01*
X39704907Y-37060545D01*
X39593499Y-37045561D01*
X39529682Y-37017117D01*
X39522442Y-37006073D01*
X41962523Y-37006073D01*
X41982277Y-37320072D01*
X41982278Y-37320079D01*
X41984073Y-37329488D01*
X42035028Y-37596606D01*
X42041237Y-37629151D01*
X42138464Y-37928384D01*
X42138466Y-37928389D01*
X42272428Y-38213071D01*
X42272431Y-38213077D01*
X42441018Y-38478729D01*
X42441021Y-38478733D01*
X42641573Y-38721158D01*
X42641575Y-38721160D01*
X42641577Y-38721162D01*
X42822172Y-38890752D01*
X42870935Y-38936544D01*
X42870945Y-38936552D01*
X43125471Y-39121476D01*
X43125476Y-39121478D01*
X43125483Y-39121484D01*
X43401201Y-39273062D01*
X43401206Y-39273064D01*
X43401208Y-39273065D01*
X43401209Y-39273066D01*
X43693738Y-39388886D01*
X43693741Y-39388887D01*
X43954814Y-39455919D01*
X43998494Y-39467134D01*
X44063977Y-39475406D01*
X44310637Y-39506567D01*
X44310646Y-39506567D01*
X44310649Y-39506568D01*
X44310651Y-39506568D01*
X44625285Y-39506568D01*
X44657901Y-39502447D01*
X44726877Y-39513572D01*
X44753146Y-39530476D01*
X47632519Y-41946556D01*
X47682303Y-41979964D01*
X47682306Y-41979965D01*
X47817930Y-42028114D01*
X47825497Y-42028534D01*
X47961631Y-42036102D01*
X48101762Y-42003283D01*
X48226968Y-41932312D01*
X48270195Y-41890768D01*
X49938707Y-39902311D01*
X49972115Y-39852527D01*
X50020265Y-39716899D01*
X50028253Y-39573199D01*
X49995433Y-39433068D01*
X49924463Y-39307862D01*
X49882919Y-39264635D01*
X47781836Y-37501618D01*
X47001981Y-36847242D01*
X46963279Y-36789070D01*
X46957932Y-36760036D01*
X46953656Y-36692064D01*
X46953655Y-36692056D01*
X46953655Y-36692053D01*
X46894698Y-36382989D01*
X46797470Y-36083753D01*
X46785298Y-36057887D01*
X46690356Y-35856124D01*
X46663504Y-35799061D01*
X46494914Y-35533405D01*
X46461552Y-35493077D01*
X46294360Y-35290977D01*
X46294358Y-35290975D01*
X46211720Y-35213372D01*
X46064997Y-35075590D01*
X46064994Y-35075588D01*
X46064988Y-35075583D01*
X45810462Y-34890659D01*
X45810455Y-34890654D01*
X45810451Y-34890652D01*
X45534733Y-34739074D01*
X45534730Y-34739072D01*
X45534725Y-34739070D01*
X45534724Y-34739069D01*
X45242195Y-34623249D01*
X45242192Y-34623248D01*
X44937443Y-34545002D01*
X44937430Y-34545000D01*
X44625296Y-34505568D01*
X44625285Y-34505568D01*
X44310649Y-34505568D01*
X44310637Y-34505568D01*
X43998503Y-34545000D01*
X43998490Y-34545002D01*
X43693741Y-34623248D01*
X43693738Y-34623249D01*
X43401209Y-34739069D01*
X43401208Y-34739070D01*
X43125483Y-34890652D01*
X43125471Y-34890659D01*
X42870945Y-35075583D01*
X42870935Y-35075591D01*
X42641575Y-35290975D01*
X42641573Y-35290977D01*
X42441021Y-35533402D01*
X42441018Y-35533406D01*
X42272431Y-35799058D01*
X42272428Y-35799064D01*
X42138466Y-36083746D01*
X42138464Y-36083751D01*
X42041237Y-36382984D01*
X41982278Y-36692056D01*
X41982277Y-36692063D01*
X41962523Y-37006062D01*
X41962523Y-37006073D01*
X39522442Y-37006073D01*
X39491374Y-36958685D01*
X39490738Y-36888818D01*
X39527975Y-36829699D01*
X39537145Y-36822348D01*
X39567612Y-36800212D01*
X39567616Y-36800209D01*
X39796927Y-36584871D01*
X39997448Y-36342483D01*
X40166000Y-36076886D01*
X40166003Y-36076880D01*
X40299938Y-35792256D01*
X40299940Y-35792251D01*
X40397148Y-35493077D01*
X40456095Y-35184068D01*
X40456096Y-35184061D01*
X40473835Y-34902094D01*
X40473834Y-34902094D01*
X39470904Y-34989839D01*
X39470904Y-34745825D01*
X39429988Y-34500629D01*
X39426948Y-34491776D01*
X40427118Y-34404273D01*
X40397151Y-34247169D01*
X40299940Y-33947986D01*
X40299938Y-33947981D01*
X40166003Y-33663357D01*
X40166000Y-33663351D01*
X39997448Y-33397754D01*
X39796927Y-33155366D01*
X39567616Y-32940028D01*
X39567606Y-32940020D01*
X39313131Y-32755133D01*
X39313113Y-32755122D01*
X39037456Y-32603578D01*
X39037448Y-32603574D01*
X38744977Y-32487778D01*
X38440283Y-32409545D01*
X38440274Y-32409543D01*
X38128202Y-32370119D01*
X38003137Y-32370119D01*
X38091046Y-33374933D01*
X38032947Y-33370119D01*
X37908861Y-33370119D01*
X37723166Y-33385506D01*
X37592947Y-33418482D01*
X37511287Y-32485100D01*
X37525054Y-32416600D01*
X37573669Y-32366417D01*
X37624008Y-32350765D01*
X37684648Y-32345459D01*
X37684649Y-32345459D01*
X37392123Y-32100000D01*
X80094540Y-32100000D01*
X80114326Y-32288256D01*
X80114327Y-32288259D01*
X80172818Y-32468277D01*
X80172821Y-32468284D01*
X80267467Y-32632216D01*
X80367650Y-32743480D01*
X80397880Y-32806471D01*
X80399500Y-32826452D01*
X80399500Y-49356571D01*
X80398969Y-49364673D01*
X80394318Y-49399999D01*
X80394318Y-49400000D01*
X80399500Y-49439360D01*
X80414955Y-49556760D01*
X80414956Y-49556762D01*
X80475464Y-49702841D01*
X80571718Y-49828282D01*
X80599995Y-49849980D01*
X80606085Y-49855320D01*
X84236397Y-53485632D01*
X87844669Y-57093904D01*
X87850020Y-57100005D01*
X87871718Y-57128282D01*
X87997159Y-57224536D01*
X88143238Y-57285044D01*
X88221619Y-57295363D01*
X88299999Y-57305682D01*
X88300000Y-57305682D01*
X88335329Y-57301030D01*
X88343428Y-57300500D01*
X96299903Y-57300500D01*
X96366942Y-57320185D01*
X96387584Y-57336819D01*
X97363181Y-58312416D01*
X97396666Y-58373739D01*
X97399500Y-58400097D01*
X97399500Y-58973547D01*
X97379815Y-59040586D01*
X97367650Y-59056519D01*
X97267466Y-59167785D01*
X97172821Y-59331715D01*
X97172818Y-59331722D01*
X97123138Y-59484623D01*
X97114326Y-59511744D01*
X97094540Y-59700000D01*
X97114326Y-59888256D01*
X97114327Y-59888259D01*
X97172818Y-60068277D01*
X97172821Y-60068284D01*
X97267467Y-60232216D01*
X97370219Y-60346333D01*
X97394129Y-60372888D01*
X97547265Y-60484148D01*
X97547270Y-60484151D01*
X97720192Y-60561142D01*
X97720197Y-60561144D01*
X97905354Y-60600500D01*
X97905355Y-60600500D01*
X98094644Y-60600500D01*
X98094646Y-60600500D01*
X98279803Y-60561144D01*
X98452730Y-60484151D01*
X98605871Y-60372888D01*
X98732533Y-60232216D01*
X98827179Y-60068284D01*
X98885674Y-59888256D01*
X98905460Y-59700000D01*
X98885674Y-59511744D01*
X98827179Y-59331716D01*
X98732533Y-59167784D01*
X98719431Y-59153233D01*
X98632349Y-59056517D01*
X98602119Y-58993525D01*
X98600499Y-58973545D01*
X98600499Y-58737379D01*
X98600499Y-58230923D01*
X113581803Y-58230923D01*
X113601557Y-58544922D01*
X113601558Y-58544929D01*
X113660517Y-58854001D01*
X113757744Y-59153234D01*
X113757746Y-59153239D01*
X113891708Y-59437921D01*
X113891711Y-59437927D01*
X114060298Y-59703579D01*
X114060301Y-59703583D01*
X114260853Y-59946008D01*
X114260855Y-59946010D01*
X114490215Y-60161394D01*
X114490225Y-60161402D01*
X114744751Y-60346326D01*
X114744756Y-60346328D01*
X114744763Y-60346334D01*
X115020481Y-60497912D01*
X115020486Y-60497914D01*
X115020488Y-60497915D01*
X115020489Y-60497916D01*
X115313018Y-60613736D01*
X115313021Y-60613737D01*
X115586916Y-60684061D01*
X115617774Y-60691984D01*
X115683257Y-60700256D01*
X115929917Y-60731417D01*
X115929926Y-60731417D01*
X115929929Y-60731418D01*
X115929931Y-60731418D01*
X116244563Y-60731418D01*
X116244565Y-60731418D01*
X116244568Y-60731417D01*
X116244576Y-60731417D01*
X116430840Y-60707886D01*
X116556720Y-60691984D01*
X116861472Y-60613737D01*
X116961930Y-60573963D01*
X117154004Y-60497916D01*
X117154005Y-60497915D01*
X117154003Y-60497915D01*
X117154013Y-60497912D01*
X117429731Y-60346334D01*
X117684277Y-60161396D01*
X117913637Y-59946012D01*
X118114194Y-59703581D01*
X118282784Y-59437925D01*
X118416750Y-59153233D01*
X118513978Y-58853997D01*
X118572935Y-58544933D01*
X118577212Y-58476946D01*
X118601066Y-58411275D01*
X118621261Y-58389742D01*
X119895909Y-57320185D01*
X121376795Y-56077574D01*
X122993968Y-56077574D01*
X123667496Y-56880251D01*
X123667507Y-56880262D01*
X123710680Y-56921757D01*
X123710682Y-56921759D01*
X123835756Y-56992654D01*
X123835759Y-56992655D01*
X123975755Y-57025443D01*
X124119310Y-57017465D01*
X124254802Y-56969362D01*
X124254808Y-56969359D01*
X124304532Y-56935992D01*
X125873261Y-55619670D01*
X124909079Y-54470604D01*
X122993968Y-56077574D01*
X121376795Y-56077574D01*
X121502197Y-55972349D01*
X121543743Y-55929123D01*
X121614713Y-55803917D01*
X121647533Y-55663786D01*
X121639545Y-55520086D01*
X121591395Y-55384458D01*
X121557988Y-55334674D01*
X121557983Y-55334668D01*
X121557978Y-55334661D01*
X120910550Y-54563088D01*
X121909591Y-54563088D01*
X121917570Y-54706642D01*
X121965672Y-54842136D01*
X121999040Y-54891861D01*
X122672575Y-55694550D01*
X124587687Y-54087581D01*
X123623504Y-52938514D01*
X122054782Y-54254830D01*
X122013276Y-54298016D01*
X121942379Y-54423094D01*
X121909591Y-54563088D01*
X120910550Y-54563088D01*
X119889471Y-53346215D01*
X119889467Y-53346211D01*
X119846250Y-53304675D01*
X119846243Y-53304669D01*
X119721043Y-53233702D01*
X119721037Y-53233700D01*
X119580911Y-53200883D01*
X119437212Y-53208870D01*
X119301584Y-53257020D01*
X119251804Y-53290424D01*
X119251786Y-53290437D01*
X116372431Y-55706505D01*
X116308422Y-55734518D01*
X116277184Y-55734538D01*
X116244576Y-55730418D01*
X116244565Y-55730418D01*
X115929929Y-55730418D01*
X115929917Y-55730418D01*
X115617783Y-55769850D01*
X115617770Y-55769852D01*
X115313021Y-55848098D01*
X115313018Y-55848099D01*
X115020489Y-55963919D01*
X115020488Y-55963920D01*
X114744763Y-56115502D01*
X114744751Y-56115509D01*
X114490225Y-56300433D01*
X114490215Y-56300441D01*
X114260855Y-56515825D01*
X114260853Y-56515827D01*
X114060301Y-56758252D01*
X114060298Y-56758256D01*
X113891711Y-57023908D01*
X113891708Y-57023914D01*
X113757746Y-57308596D01*
X113757744Y-57308601D01*
X113660517Y-57607834D01*
X113601558Y-57916906D01*
X113601557Y-57916913D01*
X113581803Y-58230912D01*
X113581803Y-58230923D01*
X98600499Y-58230923D01*
X98600499Y-58143411D01*
X98601028Y-58135346D01*
X98605682Y-58100000D01*
X98585044Y-57943238D01*
X98524536Y-57797159D01*
X98452450Y-57703215D01*
X98438761Y-57685375D01*
X98428281Y-57671716D01*
X98400009Y-57650023D01*
X98393912Y-57644677D01*
X97055328Y-56306093D01*
X97049974Y-56299988D01*
X97028286Y-56271722D01*
X97028283Y-56271720D01*
X97028282Y-56271718D01*
X96902841Y-56175464D01*
X96756762Y-56114956D01*
X96756760Y-56114955D01*
X96639361Y-56099500D01*
X96600000Y-56094318D01*
X96564670Y-56098969D01*
X96556572Y-56099500D01*
X88600097Y-56099500D01*
X88533058Y-56079815D01*
X88512416Y-56063181D01*
X81636819Y-49187583D01*
X81603334Y-49126260D01*
X81600500Y-49099902D01*
X81600500Y-48300000D01*
X87994540Y-48300000D01*
X88014326Y-48488256D01*
X88014327Y-48488259D01*
X88072818Y-48668277D01*
X88072821Y-48668284D01*
X88167467Y-48832216D01*
X88261959Y-48937160D01*
X88294129Y-48972888D01*
X88447265Y-49084148D01*
X88447270Y-49084151D01*
X88620192Y-49161142D01*
X88620197Y-49161144D01*
X88805354Y-49200500D01*
X88805355Y-49200500D01*
X88994644Y-49200500D01*
X88994646Y-49200500D01*
X89179803Y-49161144D01*
X89352730Y-49084151D01*
X89505871Y-48972888D01*
X89632533Y-48832216D01*
X89727179Y-48668284D01*
X89785674Y-48488256D01*
X89805460Y-48300000D01*
X89785674Y-48111744D01*
X89727179Y-47931716D01*
X89632533Y-47767784D01*
X89571412Y-47699902D01*
X89532350Y-47656519D01*
X89502120Y-47593527D01*
X89500500Y-47573547D01*
X89500500Y-46700097D01*
X89520185Y-46633058D01*
X89536819Y-46612416D01*
X90240777Y-45908458D01*
X90987821Y-45161413D01*
X91049142Y-45127930D01*
X91118834Y-45132914D01*
X91174767Y-45174786D01*
X91199184Y-45240250D01*
X91199500Y-45249096D01*
X91199500Y-47956571D01*
X91198969Y-47964669D01*
X91194318Y-48000000D01*
X91199500Y-48039361D01*
X91200133Y-48044168D01*
X91214955Y-48156760D01*
X91214956Y-48156762D01*
X91275464Y-48302841D01*
X91371718Y-48428282D01*
X91399995Y-48449980D01*
X91406085Y-48455320D01*
X92231412Y-49280647D01*
X93044669Y-50093904D01*
X93050020Y-50100005D01*
X93071718Y-50128282D01*
X93133499Y-50175688D01*
X93197159Y-50224536D01*
X93197161Y-50224536D01*
X93197163Y-50224538D01*
X93270198Y-50254789D01*
X93343238Y-50285044D01*
X93421619Y-50295363D01*
X93499999Y-50305682D01*
X93500000Y-50305682D01*
X93535329Y-50301030D01*
X93543428Y-50300500D01*
X98262115Y-50300500D01*
X98329154Y-50320185D01*
X98367161Y-50364047D01*
X98369571Y-50362656D01*
X98467465Y-50532214D01*
X98567650Y-50643480D01*
X98597880Y-50706471D01*
X98599500Y-50726452D01*
X98599500Y-52556571D01*
X98598969Y-52564673D01*
X98594318Y-52599999D01*
X98594318Y-52600000D01*
X98599500Y-52639360D01*
X98614955Y-52756760D01*
X98614956Y-52756762D01*
X98651220Y-52844312D01*
X98675465Y-52902843D01*
X98679528Y-52909881D01*
X98677551Y-52911022D01*
X98698489Y-52965193D01*
X98684445Y-53033637D01*
X98635627Y-53083623D01*
X98574918Y-53099500D01*
X94642367Y-53099500D01*
X94591931Y-53088779D01*
X94479807Y-53038857D01*
X94479802Y-53038855D01*
X94334001Y-53007865D01*
X94294646Y-52999500D01*
X94105354Y-52999500D01*
X94072897Y-53006398D01*
X93920197Y-53038855D01*
X93920192Y-53038857D01*
X93747270Y-53115848D01*
X93747265Y-53115851D01*
X93594129Y-53227111D01*
X93524291Y-53304675D01*
X93486885Y-53346219D01*
X93475852Y-53358472D01*
X93416365Y-53395121D01*
X93383702Y-53399500D01*
X89826258Y-53399500D01*
X89759219Y-53379815D01*
X89734109Y-53358473D01*
X89705871Y-53327112D01*
X89705864Y-53327106D01*
X89552734Y-53215851D01*
X89552729Y-53215848D01*
X89379807Y-53138857D01*
X89379802Y-53138855D01*
X89234001Y-53107865D01*
X89194646Y-53099500D01*
X89005354Y-53099500D01*
X88972897Y-53106398D01*
X88820197Y-53138855D01*
X88820192Y-53138857D01*
X88647270Y-53215848D01*
X88647265Y-53215851D01*
X88494129Y-53327111D01*
X88367466Y-53467785D01*
X88272821Y-53631715D01*
X88272818Y-53631722D01*
X88232958Y-53754400D01*
X88214326Y-53811744D01*
X88194540Y-54000000D01*
X88214326Y-54188256D01*
X88214327Y-54188259D01*
X88272818Y-54368277D01*
X88272821Y-54368284D01*
X88367467Y-54532216D01*
X88472849Y-54649254D01*
X88494129Y-54672888D01*
X88647265Y-54784148D01*
X88647270Y-54784151D01*
X88820192Y-54861142D01*
X88820197Y-54861144D01*
X89005354Y-54900500D01*
X89005355Y-54900500D01*
X89194644Y-54900500D01*
X89194646Y-54900500D01*
X89379803Y-54861144D01*
X89552730Y-54784151D01*
X89705871Y-54672888D01*
X89734108Y-54641527D01*
X89793595Y-54604879D01*
X89826258Y-54600500D01*
X93591844Y-54600500D01*
X93658883Y-54620185D01*
X93664729Y-54624182D01*
X93747265Y-54684148D01*
X93747270Y-54684151D01*
X93920192Y-54761142D01*
X93920197Y-54761144D01*
X94105354Y-54800500D01*
X94105355Y-54800500D01*
X94294644Y-54800500D01*
X94294646Y-54800500D01*
X94479803Y-54761144D01*
X94652730Y-54684151D01*
X94805871Y-54572888D01*
X94932533Y-54432216D01*
X94948687Y-54404237D01*
X94972784Y-54362500D01*
X95023351Y-54314284D01*
X95080171Y-54300500D01*
X99573742Y-54300500D01*
X99640781Y-54320185D01*
X99665891Y-54341527D01*
X99694128Y-54372887D01*
X99694135Y-54372893D01*
X99847265Y-54484148D01*
X99847270Y-54484151D01*
X100020192Y-54561142D01*
X100020197Y-54561144D01*
X100205354Y-54600500D01*
X100205355Y-54600500D01*
X100394644Y-54600500D01*
X100394646Y-54600500D01*
X100579803Y-54561144D01*
X100752730Y-54484151D01*
X100905871Y-54372888D01*
X101032533Y-54232216D01*
X101127179Y-54068284D01*
X101185674Y-53888256D01*
X101205460Y-53700000D01*
X101185674Y-53511744D01*
X101127179Y-53331716D01*
X101032533Y-53167784D01*
X100905871Y-53027112D01*
X100905870Y-53027111D01*
X100752734Y-52915851D01*
X100752729Y-52915848D01*
X100579807Y-52838857D01*
X100579802Y-52838855D01*
X100434000Y-52807865D01*
X100394646Y-52799500D01*
X100394645Y-52799500D01*
X100300097Y-52799500D01*
X100233058Y-52779815D01*
X100212416Y-52763181D01*
X100066356Y-52617121D01*
X124006528Y-52617121D01*
X125292103Y-54149211D01*
X126256283Y-55298276D01*
X127162433Y-54537925D01*
X127101793Y-54532620D01*
X127036725Y-54507167D01*
X126995746Y-54450576D01*
X126989073Y-54398285D01*
X127070732Y-53464904D01*
X127200952Y-53497881D01*
X127386647Y-53513268D01*
X127510733Y-53513268D01*
X127568832Y-53508453D01*
X127480923Y-54513267D01*
X127480924Y-54513268D01*
X127605975Y-54513268D01*
X127605988Y-54513267D01*
X127918060Y-54473843D01*
X127918069Y-54473841D01*
X128222763Y-54395608D01*
X128515234Y-54279812D01*
X128515242Y-54279808D01*
X128790899Y-54128264D01*
X128790917Y-54128253D01*
X129045392Y-53943366D01*
X129045402Y-53943358D01*
X129274713Y-53728020D01*
X129475234Y-53485632D01*
X129643786Y-53220035D01*
X129643789Y-53220029D01*
X129777724Y-52935405D01*
X129777726Y-52935400D01*
X129854313Y-52699691D01*
X129893750Y-52642016D01*
X129958109Y-52614817D01*
X130026955Y-52626732D01*
X130078431Y-52673976D01*
X130080973Y-52678395D01*
X130092644Y-52699691D01*
X130103979Y-52720375D01*
X130103983Y-52720381D01*
X130195296Y-52844312D01*
X130282223Y-52962290D01*
X130452985Y-53138857D01*
X130491120Y-53178288D01*
X130491127Y-53178294D01*
X130538684Y-53215849D01*
X130726946Y-53364518D01*
X130985487Y-53517652D01*
X131262133Y-53634960D01*
X131262136Y-53634960D01*
X131262139Y-53634962D01*
X131407039Y-53674653D01*
X131551946Y-53714348D01*
X131849755Y-53754400D01*
X131849760Y-53754400D01*
X132075041Y-53754400D01*
X132238513Y-53743456D01*
X132299819Y-53739352D01*
X132594287Y-53679499D01*
X132878151Y-53580931D01*
X133146343Y-53445407D01*
X133394080Y-53275346D01*
X133616939Y-53073782D01*
X133810943Y-52844312D01*
X133972631Y-52591032D01*
X134099118Y-52318460D01*
X134188146Y-52031462D01*
X134238126Y-51735158D01*
X134248167Y-51434836D01*
X134218089Y-51135855D01*
X134148430Y-50843551D01*
X134040431Y-50563140D01*
X133896021Y-50299625D01*
X133717777Y-50057710D01*
X133508879Y-49841711D01*
X133508872Y-49841705D01*
X133345724Y-49712868D01*
X133273054Y-49655482D01*
X133014513Y-49502348D01*
X132737867Y-49385040D01*
X132737860Y-49385037D01*
X132448059Y-49305653D01*
X132448056Y-49305652D01*
X132448054Y-49305652D01*
X132150245Y-49265600D01*
X131924967Y-49265600D01*
X131924959Y-49265600D01*
X131700183Y-49280647D01*
X131700174Y-49280649D01*
X131405710Y-49340501D01*
X131121847Y-49439069D01*
X131121844Y-49439071D01*
X130853662Y-49574589D01*
X130605918Y-49744655D01*
X130383062Y-49946216D01*
X130189058Y-50175686D01*
X130189056Y-50175688D01*
X130027366Y-50428972D01*
X129920431Y-50659413D01*
X129900882Y-50701540D01*
X129900880Y-50701545D01*
X129900877Y-50701554D01*
X129873746Y-50789016D01*
X129835083Y-50847213D01*
X129771094Y-50875269D01*
X129702094Y-50864276D01*
X129649992Y-50817723D01*
X129645727Y-50809878D01*
X129645663Y-50809914D01*
X129643786Y-50806500D01*
X129475234Y-50540903D01*
X129274713Y-50298515D01*
X129045402Y-50083177D01*
X129045392Y-50083169D01*
X128790917Y-49898282D01*
X128790899Y-49898271D01*
X128515242Y-49746727D01*
X128515234Y-49746723D01*
X128222763Y-49630927D01*
X127918069Y-49552694D01*
X127918060Y-49552692D01*
X127914951Y-49552299D01*
X127914950Y-49552300D01*
X127826645Y-50561630D01*
X127696428Y-50528655D01*
X127510733Y-50513268D01*
X127386647Y-50513268D01*
X127328546Y-50518082D01*
X127416456Y-49513268D01*
X127291391Y-49513268D01*
X126979319Y-49552692D01*
X126979310Y-49552694D01*
X126674616Y-49630927D01*
X126382145Y-49746723D01*
X126382137Y-49746727D01*
X126106480Y-49898271D01*
X126106462Y-49898282D01*
X125851987Y-50083169D01*
X125851977Y-50083177D01*
X125622666Y-50298515D01*
X125422145Y-50540903D01*
X125253593Y-50806500D01*
X125253590Y-50806506D01*
X125119655Y-51091130D01*
X125119653Y-51091135D01*
X125022445Y-51390309D01*
X124992474Y-51547422D01*
X125992645Y-51634925D01*
X125989606Y-51643778D01*
X125948690Y-51888974D01*
X125948690Y-52132989D01*
X125020094Y-52051748D01*
X124955025Y-52026296D01*
X124914046Y-51969705D01*
X124907373Y-51917412D01*
X124912678Y-51856772D01*
X124006528Y-52617121D01*
X100066356Y-52617121D01*
X99836819Y-52387584D01*
X99803334Y-52326261D01*
X99800500Y-52299903D01*
X99800500Y-50726452D01*
X99820185Y-50659413D01*
X99832350Y-50643480D01*
X99932533Y-50532216D01*
X100027179Y-50368284D01*
X100085674Y-50188256D01*
X100105460Y-50000000D01*
X100085674Y-49811744D01*
X100027179Y-49631716D01*
X99932533Y-49467784D01*
X99805871Y-49327112D01*
X99805870Y-49327111D01*
X99652734Y-49215851D01*
X99652729Y-49215848D01*
X99479807Y-49138857D01*
X99479802Y-49138855D01*
X99334000Y-49107865D01*
X99294646Y-49099500D01*
X99105354Y-49099500D01*
X99062703Y-49108565D01*
X99020740Y-49110213D01*
X98939361Y-49099500D01*
X98939360Y-49099499D01*
X98900000Y-49094318D01*
X98864670Y-49098969D01*
X98856572Y-49099500D01*
X93800097Y-49099500D01*
X93733058Y-49079815D01*
X93712416Y-49063181D01*
X92436819Y-47787583D01*
X92403334Y-47726260D01*
X92400500Y-47699902D01*
X92400500Y-45985819D01*
X128174948Y-45985819D01*
X128194702Y-46299818D01*
X128194703Y-46299825D01*
X128253662Y-46608897D01*
X128350889Y-46908130D01*
X128350891Y-46908135D01*
X128484853Y-47192817D01*
X128484856Y-47192823D01*
X128653443Y-47458475D01*
X128653446Y-47458479D01*
X128853998Y-47700904D01*
X128854000Y-47700906D01*
X128854002Y-47700908D01*
X128936639Y-47778509D01*
X129083360Y-47916290D01*
X129083370Y-47916298D01*
X129337896Y-48101222D01*
X129337901Y-48101224D01*
X129337908Y-48101230D01*
X129613626Y-48252808D01*
X129613631Y-48252810D01*
X129613633Y-48252811D01*
X129613634Y-48252812D01*
X129906163Y-48368632D01*
X129906166Y-48368633D01*
X130180065Y-48438958D01*
X130210919Y-48446880D01*
X130276402Y-48455152D01*
X130523062Y-48486313D01*
X130523071Y-48486313D01*
X130523074Y-48486314D01*
X130523076Y-48486314D01*
X130837708Y-48486314D01*
X130837710Y-48486314D01*
X130837713Y-48486313D01*
X130837721Y-48486313D01*
X131023985Y-48462782D01*
X131149865Y-48446880D01*
X131454617Y-48368633D01*
X131454620Y-48368632D01*
X131747149Y-48252812D01*
X131747150Y-48252811D01*
X131747148Y-48252811D01*
X131747158Y-48252808D01*
X132022876Y-48101230D01*
X132277422Y-47916292D01*
X132506782Y-47700908D01*
X132707339Y-47458477D01*
X132875929Y-47192821D01*
X133009895Y-46908129D01*
X133107123Y-46608893D01*
X133166080Y-46299829D01*
X133170357Y-46231842D01*
X133194211Y-46166171D01*
X133214406Y-46144638D01*
X134292213Y-45240250D01*
X135969941Y-43832469D01*
X137587116Y-43832469D01*
X138260644Y-44635146D01*
X138260655Y-44635157D01*
X138303828Y-44676652D01*
X138303830Y-44676654D01*
X138428904Y-44747549D01*
X138428907Y-44747550D01*
X138568903Y-44780338D01*
X138712458Y-44772360D01*
X138847950Y-44724257D01*
X138847956Y-44724254D01*
X138897680Y-44690887D01*
X140466409Y-43374565D01*
X139502227Y-42225499D01*
X137587116Y-43832469D01*
X135969941Y-43832469D01*
X136095342Y-43727245D01*
X136136888Y-43684019D01*
X136207858Y-43558813D01*
X136240678Y-43418682D01*
X136232690Y-43274982D01*
X136184540Y-43139354D01*
X136151133Y-43089570D01*
X136151128Y-43089564D01*
X136151123Y-43089557D01*
X135503694Y-42317983D01*
X136502739Y-42317983D01*
X136510718Y-42461537D01*
X136558820Y-42597031D01*
X136592188Y-42646756D01*
X137265723Y-43449445D01*
X139180835Y-41842476D01*
X138216652Y-40693409D01*
X136647930Y-42009725D01*
X136606424Y-42052911D01*
X136535527Y-42177989D01*
X136502739Y-42317983D01*
X135503694Y-42317983D01*
X134482616Y-41101111D01*
X134482612Y-41101107D01*
X134439395Y-41059571D01*
X134439388Y-41059565D01*
X134314188Y-40988598D01*
X134314182Y-40988596D01*
X134174056Y-40955779D01*
X134030357Y-40963766D01*
X133894729Y-41011916D01*
X133844949Y-41045320D01*
X133844931Y-41045333D01*
X130965576Y-43461401D01*
X130901567Y-43489414D01*
X130870329Y-43489434D01*
X130837721Y-43485314D01*
X130837710Y-43485314D01*
X130523074Y-43485314D01*
X130523062Y-43485314D01*
X130210928Y-43524746D01*
X130210915Y-43524748D01*
X129906166Y-43602994D01*
X129906163Y-43602995D01*
X129613634Y-43718815D01*
X129613633Y-43718816D01*
X129337908Y-43870398D01*
X129337896Y-43870405D01*
X129083370Y-44055329D01*
X129083360Y-44055337D01*
X128854000Y-44270721D01*
X128853998Y-44270723D01*
X128653446Y-44513148D01*
X128653443Y-44513152D01*
X128484856Y-44778804D01*
X128484853Y-44778810D01*
X128350891Y-45063492D01*
X128350889Y-45063497D01*
X128253662Y-45362730D01*
X128194703Y-45671802D01*
X128194702Y-45671809D01*
X128174948Y-45985808D01*
X128174948Y-45985819D01*
X92400500Y-45985819D01*
X92400500Y-44226452D01*
X92420185Y-44159413D01*
X92432350Y-44143480D01*
X92532533Y-44032216D01*
X92627179Y-43868284D01*
X92685674Y-43688256D01*
X92705460Y-43500000D01*
X92685674Y-43311744D01*
X92627179Y-43131716D01*
X92532533Y-42967784D01*
X92405871Y-42827112D01*
X92405863Y-42827106D01*
X92252734Y-42715851D01*
X92252729Y-42715848D01*
X92079807Y-42638857D01*
X92079802Y-42638855D01*
X91910364Y-42602841D01*
X91894646Y-42599500D01*
X91705354Y-42599500D01*
X91689636Y-42602841D01*
X91520197Y-42638855D01*
X91520192Y-42638857D01*
X91347270Y-42715848D01*
X91347265Y-42715851D01*
X91194135Y-42827106D01*
X91194129Y-42827111D01*
X91178374Y-42844608D01*
X91118885Y-42881253D01*
X91049028Y-42879920D01*
X90998547Y-42849312D01*
X90459526Y-42310291D01*
X114195792Y-42310291D01*
X114205675Y-42668822D01*
X114205675Y-42668827D01*
X114205676Y-42668832D01*
X114254941Y-43024103D01*
X114254942Y-43024107D01*
X114342989Y-43371799D01*
X114342989Y-43371801D01*
X114468751Y-43707695D01*
X114468752Y-43707698D01*
X114619841Y-44006256D01*
X114630704Y-44027721D01*
X114826878Y-44327988D01*
X115054893Y-44604852D01*
X115054894Y-44604853D01*
X115054899Y-44604858D01*
X115311985Y-44854955D01*
X115311990Y-44854959D01*
X115595011Y-45075243D01*
X115595014Y-45075245D01*
X115595022Y-45075251D01*
X115900580Y-45263077D01*
X116224946Y-45416149D01*
X116224948Y-45416149D01*
X116224953Y-45416152D01*
X116224952Y-45416152D01*
X116564168Y-45532604D01*
X116564183Y-45532609D01*
X116914172Y-45611043D01*
X117270665Y-45650500D01*
X117539593Y-45650500D01*
X117539595Y-45650500D01*
X117808125Y-45635685D01*
X118161904Y-45576650D01*
X118507041Y-45479054D01*
X118839346Y-45344083D01*
X119154787Y-45173375D01*
X119449534Y-44969002D01*
X119720010Y-44733445D01*
X119962931Y-44469562D01*
X120175348Y-44180559D01*
X120354683Y-43869941D01*
X120498759Y-43541481D01*
X120605827Y-43199164D01*
X120674588Y-42847147D01*
X120704207Y-42489702D01*
X120694324Y-42131168D01*
X120645059Y-41775897D01*
X120557011Y-41428202D01*
X120542654Y-41389857D01*
X120468482Y-41191751D01*
X120431248Y-41092303D01*
X120269296Y-40772279D01*
X120073122Y-40472012D01*
X119990769Y-40372016D01*
X138599676Y-40372016D01*
X139874059Y-41890768D01*
X140849431Y-43053171D01*
X141755581Y-42292820D01*
X141694941Y-42287515D01*
X141629873Y-42262062D01*
X141588894Y-42205471D01*
X141582221Y-42153180D01*
X141663880Y-41219799D01*
X141794100Y-41252776D01*
X141979795Y-41268163D01*
X142103881Y-41268163D01*
X142161980Y-41263348D01*
X142074071Y-42268162D01*
X142074072Y-42268163D01*
X142199123Y-42268163D01*
X142199136Y-42268162D01*
X142511208Y-42228738D01*
X142511217Y-42228736D01*
X142815911Y-42150503D01*
X143108382Y-42034707D01*
X143108390Y-42034703D01*
X143384047Y-41883159D01*
X143384065Y-41883148D01*
X143638540Y-41698261D01*
X143638550Y-41698253D01*
X143867861Y-41482915D01*
X144068382Y-41240527D01*
X144236934Y-40974930D01*
X144236937Y-40974924D01*
X144370872Y-40690300D01*
X144370874Y-40690295D01*
X144447461Y-40454586D01*
X144486898Y-40396911D01*
X144551257Y-40369712D01*
X144620103Y-40381627D01*
X144671579Y-40428871D01*
X144674121Y-40433290D01*
X144685792Y-40454586D01*
X144697127Y-40475270D01*
X144697131Y-40475276D01*
X144815956Y-40636546D01*
X144875371Y-40717185D01*
X144983196Y-40828675D01*
X145084268Y-40933183D01*
X145084275Y-40933189D01*
X145128085Y-40967785D01*
X145320094Y-41119413D01*
X145578635Y-41272547D01*
X145855281Y-41389855D01*
X145855284Y-41389855D01*
X145855287Y-41389857D01*
X145995256Y-41428198D01*
X146145094Y-41469243D01*
X146442903Y-41509295D01*
X146442908Y-41509295D01*
X146668189Y-41509295D01*
X146831661Y-41498351D01*
X146892967Y-41494247D01*
X147187435Y-41434394D01*
X147471299Y-41335826D01*
X147739491Y-41200302D01*
X147987228Y-41030241D01*
X148210087Y-40828677D01*
X148404091Y-40599207D01*
X148565779Y-40345927D01*
X148692266Y-40073355D01*
X148781294Y-39786357D01*
X148831274Y-39490053D01*
X148841315Y-39189731D01*
X148811237Y-38890750D01*
X148811235Y-38890743D01*
X148776129Y-38743431D01*
X148741578Y-38598446D01*
X148633579Y-38318035D01*
X148489169Y-38054520D01*
X148489162Y-38054511D01*
X148310926Y-37812607D01*
X148310925Y-37812605D01*
X148102027Y-37596606D01*
X148102020Y-37596600D01*
X147866203Y-37410378D01*
X147866204Y-37410378D01*
X147866202Y-37410377D01*
X147607661Y-37257243D01*
X147331015Y-37139935D01*
X147331008Y-37139932D01*
X147041207Y-37060548D01*
X147041204Y-37060547D01*
X147041202Y-37060547D01*
X146743393Y-37020495D01*
X146518115Y-37020495D01*
X146518107Y-37020495D01*
X146293331Y-37035542D01*
X146293322Y-37035544D01*
X145998858Y-37095396D01*
X145714995Y-37193964D01*
X145714992Y-37193966D01*
X145446810Y-37329484D01*
X145199066Y-37499550D01*
X144976210Y-37701111D01*
X144782206Y-37930581D01*
X144782204Y-37930583D01*
X144620514Y-38183867D01*
X144494034Y-38456426D01*
X144494025Y-38456449D01*
X144466894Y-38543911D01*
X144428231Y-38602108D01*
X144364242Y-38630164D01*
X144295242Y-38619171D01*
X144243140Y-38572618D01*
X144238875Y-38564773D01*
X144238811Y-38564809D01*
X144236934Y-38561395D01*
X144068382Y-38295798D01*
X143867861Y-38053410D01*
X143638550Y-37838072D01*
X143638540Y-37838064D01*
X143384065Y-37653177D01*
X143384047Y-37653166D01*
X143108390Y-37501622D01*
X143108382Y-37501618D01*
X142815911Y-37385822D01*
X142511217Y-37307589D01*
X142511208Y-37307587D01*
X142508099Y-37307194D01*
X142508098Y-37307195D01*
X142419793Y-38316525D01*
X142289576Y-38283550D01*
X142103881Y-38268163D01*
X141979795Y-38268163D01*
X141921694Y-38272977D01*
X142009604Y-37268163D01*
X141884539Y-37268163D01*
X141572467Y-37307587D01*
X141572458Y-37307589D01*
X141267764Y-37385822D01*
X140975293Y-37501618D01*
X140975285Y-37501622D01*
X140699628Y-37653166D01*
X140699610Y-37653177D01*
X140445135Y-37838064D01*
X140445125Y-37838072D01*
X140215814Y-38053410D01*
X140015293Y-38295798D01*
X139846741Y-38561395D01*
X139846738Y-38561401D01*
X139712803Y-38846025D01*
X139712801Y-38846030D01*
X139615593Y-39145204D01*
X139585622Y-39302317D01*
X140585793Y-39389820D01*
X140582754Y-39398673D01*
X140541838Y-39643869D01*
X140541838Y-39887884D01*
X139613242Y-39806643D01*
X139548173Y-39781191D01*
X139507194Y-39724600D01*
X139500521Y-39672307D01*
X139505826Y-39611667D01*
X138599676Y-40372016D01*
X119990769Y-40372016D01*
X119845107Y-40195148D01*
X119719908Y-40073353D01*
X119588014Y-39945044D01*
X119588009Y-39945040D01*
X119304988Y-39724756D01*
X119304985Y-39724754D01*
X119304982Y-39724752D01*
X119304978Y-39724749D01*
X118999420Y-39536923D01*
X118999419Y-39536922D01*
X118999415Y-39536920D01*
X118675046Y-39383847D01*
X118675047Y-39383847D01*
X118335831Y-39267395D01*
X118335820Y-39267392D01*
X118335817Y-39267391D01*
X117989282Y-39189731D01*
X117985824Y-39188956D01*
X117629335Y-39149500D01*
X117360405Y-39149500D01*
X117181384Y-39159376D01*
X117091874Y-39164315D01*
X116738094Y-39223350D01*
X116738090Y-39223351D01*
X116392960Y-39320945D01*
X116392957Y-39320946D01*
X116060661Y-39455913D01*
X116060648Y-39455919D01*
X115745220Y-39626620D01*
X115745219Y-39626621D01*
X115450460Y-39831002D01*
X115179996Y-40066548D01*
X115179992Y-40066551D01*
X114937067Y-40330440D01*
X114724652Y-40619441D01*
X114724651Y-40619442D01*
X114545317Y-40930058D01*
X114401240Y-41258520D01*
X114401239Y-41258521D01*
X114294173Y-41600832D01*
X114225412Y-41952849D01*
X114225410Y-41952863D01*
X114195793Y-42310287D01*
X114195792Y-42310291D01*
X90459526Y-42310291D01*
X90343843Y-42194608D01*
X90310358Y-42133285D01*
X90315342Y-42063593D01*
X90331212Y-42034033D01*
X90332522Y-42032227D01*
X90332533Y-42032216D01*
X90427179Y-41868284D01*
X90485674Y-41688256D01*
X90505460Y-41500000D01*
X90485674Y-41311744D01*
X90427179Y-41131716D01*
X90332533Y-40967784D01*
X90205871Y-40827112D01*
X90151442Y-40787567D01*
X90052734Y-40715851D01*
X90052729Y-40715848D01*
X89879807Y-40638857D01*
X89879802Y-40638855D01*
X89734001Y-40607865D01*
X89694646Y-40599500D01*
X89505354Y-40599500D01*
X89472897Y-40606398D01*
X89320197Y-40638855D01*
X89320192Y-40638857D01*
X89147270Y-40715848D01*
X89147265Y-40715851D01*
X88994129Y-40827111D01*
X88867466Y-40967785D01*
X88772821Y-41131715D01*
X88772818Y-41131722D01*
X88714327Y-41311740D01*
X88714326Y-41311744D01*
X88694540Y-41500000D01*
X88714326Y-41688256D01*
X88714327Y-41688259D01*
X88772818Y-41868277D01*
X88772821Y-41868284D01*
X88867467Y-42032216D01*
X88956564Y-42131168D01*
X88967650Y-42143480D01*
X88997880Y-42206471D01*
X88999500Y-42226452D01*
X88999500Y-42256571D01*
X88998969Y-42264669D01*
X88996126Y-42286266D01*
X88994318Y-42299999D01*
X88994318Y-42300000D01*
X88999500Y-42339360D01*
X89014955Y-42456760D01*
X89014956Y-42456762D01*
X89075464Y-42602841D01*
X89171718Y-42728282D01*
X89199995Y-42749980D01*
X89206085Y-42755320D01*
X90344677Y-43893912D01*
X90350022Y-43900008D01*
X90370975Y-43927314D01*
X90396170Y-43992483D01*
X90382132Y-44060928D01*
X90360281Y-44090482D01*
X88506096Y-45944668D01*
X88499993Y-45950020D01*
X88471718Y-45971717D01*
X88447549Y-46003213D01*
X88447550Y-46003214D01*
X88375464Y-46097158D01*
X88375461Y-46097163D01*
X88314957Y-46243234D01*
X88314955Y-46243239D01*
X88294318Y-46399998D01*
X88294318Y-46399999D01*
X88298969Y-46435326D01*
X88299500Y-46443428D01*
X88299500Y-47573547D01*
X88279815Y-47640586D01*
X88267650Y-47656519D01*
X88167466Y-47767785D01*
X88072821Y-47931715D01*
X88072818Y-47931722D01*
X88017742Y-48101230D01*
X88014326Y-48111744D01*
X87994540Y-48300000D01*
X81600500Y-48300000D01*
X81600500Y-33740714D01*
X142768096Y-33740714D01*
X142787850Y-34054713D01*
X142787851Y-34054720D01*
X142846810Y-34363792D01*
X142944037Y-34663025D01*
X142944039Y-34663030D01*
X143078001Y-34947712D01*
X143078004Y-34947718D01*
X143246591Y-35213370D01*
X143246594Y-35213374D01*
X143447146Y-35455799D01*
X143447148Y-35455801D01*
X143447150Y-35455803D01*
X143529788Y-35533405D01*
X143676508Y-35671185D01*
X143676518Y-35671193D01*
X143931044Y-35856117D01*
X143931049Y-35856119D01*
X143931056Y-35856125D01*
X144206774Y-36007703D01*
X144206779Y-36007705D01*
X144206781Y-36007706D01*
X144206782Y-36007707D01*
X144499311Y-36123527D01*
X144499314Y-36123528D01*
X144773205Y-36193851D01*
X144804067Y-36201775D01*
X144869550Y-36210047D01*
X145116210Y-36241208D01*
X145116219Y-36241208D01*
X145116222Y-36241209D01*
X145116224Y-36241209D01*
X145430856Y-36241209D01*
X145430858Y-36241209D01*
X145430861Y-36241208D01*
X145430869Y-36241208D01*
X145617133Y-36217677D01*
X145743013Y-36201775D01*
X146047765Y-36123528D01*
X146047768Y-36123527D01*
X146340297Y-36007707D01*
X146340298Y-36007706D01*
X146340296Y-36007706D01*
X146340306Y-36007703D01*
X146616024Y-35856125D01*
X146870570Y-35671187D01*
X147099930Y-35455803D01*
X147300487Y-35213372D01*
X147469077Y-34947716D01*
X147603043Y-34663024D01*
X147700271Y-34363788D01*
X147759228Y-34054724D01*
X147763505Y-33986737D01*
X147787359Y-33921066D01*
X147807554Y-33899533D01*
X148951056Y-32940020D01*
X150688490Y-31482140D01*
X150730036Y-31438914D01*
X150801006Y-31313708D01*
X150833826Y-31173577D01*
X150825838Y-31029877D01*
X150777688Y-30894249D01*
X150744281Y-30844465D01*
X150744276Y-30844459D01*
X150744271Y-30844452D01*
X149075764Y-28856006D01*
X149075760Y-28856002D01*
X149032543Y-28814466D01*
X149032536Y-28814460D01*
X148907336Y-28743493D01*
X148907330Y-28743491D01*
X148767204Y-28710674D01*
X148623505Y-28718661D01*
X148487877Y-28766811D01*
X148438097Y-28800215D01*
X148438079Y-28800228D01*
X145558724Y-31216296D01*
X145494715Y-31244309D01*
X145463477Y-31244329D01*
X145430869Y-31240209D01*
X145430858Y-31240209D01*
X145116222Y-31240209D01*
X145116210Y-31240209D01*
X144804076Y-31279641D01*
X144804063Y-31279643D01*
X144499314Y-31357889D01*
X144499311Y-31357890D01*
X144206782Y-31473710D01*
X144206781Y-31473711D01*
X143931056Y-31625293D01*
X143931044Y-31625300D01*
X143676518Y-31810224D01*
X143676508Y-31810232D01*
X143447148Y-32025616D01*
X143447146Y-32025618D01*
X143246594Y-32268043D01*
X143246591Y-32268047D01*
X143078004Y-32533699D01*
X143078001Y-32533705D01*
X142944039Y-32818387D01*
X142944037Y-32818392D01*
X142846810Y-33117625D01*
X142787851Y-33426697D01*
X142787850Y-33426704D01*
X142768096Y-33740703D01*
X142768096Y-33740714D01*
X81600500Y-33740714D01*
X81600500Y-32826452D01*
X81620185Y-32759413D01*
X81632350Y-32743480D01*
X81732533Y-32632216D01*
X81827179Y-32468284D01*
X81885674Y-32288256D01*
X81905460Y-32100000D01*
X81885674Y-31911744D01*
X81827179Y-31731716D01*
X81732533Y-31567784D01*
X81730668Y-31565713D01*
X87610000Y-31565713D01*
X87625418Y-31717338D01*
X87686299Y-31911381D01*
X87686304Y-31911391D01*
X87785005Y-32089215D01*
X87785005Y-32089216D01*
X87917478Y-32243530D01*
X87917479Y-32243531D01*
X88078304Y-32368018D01*
X88260907Y-32457589D01*
X88360000Y-32483244D01*
X88360000Y-31681110D01*
X88384457Y-31720610D01*
X88473962Y-31788201D01*
X88581840Y-31818895D01*
X88693521Y-31808546D01*
X88793922Y-31758552D01*
X88859999Y-31686069D01*
X88860000Y-32488366D01*
X88861944Y-32488069D01*
X88861945Y-32488069D01*
X89052660Y-32417436D01*
X89052664Y-32417434D01*
X89225267Y-32309850D01*
X89372668Y-32169735D01*
X89372669Y-32169733D01*
X89488856Y-32002804D01*
X89569059Y-31815907D01*
X89609999Y-31616690D01*
X89609999Y-31065384D01*
X89629683Y-30998345D01*
X89682487Y-30952590D01*
X89751646Y-30942646D01*
X89781451Y-30950823D01*
X89861664Y-30984047D01*
X89889764Y-30995687D01*
X90002280Y-31010500D01*
X90002287Y-31010500D01*
X90077713Y-31010500D01*
X90077720Y-31010500D01*
X90190236Y-30995687D01*
X90330233Y-30937698D01*
X90450451Y-30845451D01*
X90542698Y-30725233D01*
X90600687Y-30585236D01*
X90620466Y-30435000D01*
X95239534Y-30435000D01*
X95259312Y-30585234D01*
X95259313Y-30585236D01*
X95317302Y-30725233D01*
X95409549Y-30845451D01*
X95529767Y-30937698D01*
X95669764Y-30995687D01*
X95782280Y-31010500D01*
X95782287Y-31010500D01*
X95857713Y-31010500D01*
X95857720Y-31010500D01*
X95970236Y-30995687D01*
X96078546Y-30950823D01*
X96148017Y-30943354D01*
X96210496Y-30974629D01*
X96246148Y-31034718D01*
X96250000Y-31065384D01*
X96250000Y-31565713D01*
X96265418Y-31717338D01*
X96326299Y-31911381D01*
X96326304Y-31911391D01*
X96425005Y-32089215D01*
X96425005Y-32089216D01*
X96557478Y-32243530D01*
X96557479Y-32243531D01*
X96718304Y-32368018D01*
X96900907Y-32457589D01*
X97000000Y-32483244D01*
X97000000Y-31681110D01*
X97024457Y-31720610D01*
X97113962Y-31788201D01*
X97221840Y-31818895D01*
X97333521Y-31808546D01*
X97433922Y-31758552D01*
X97500000Y-31686069D01*
X97500000Y-32488366D01*
X97501944Y-32488069D01*
X97501945Y-32488069D01*
X97692660Y-32417436D01*
X97692664Y-32417434D01*
X97865267Y-32309850D01*
X98012668Y-32169735D01*
X98012669Y-32169733D01*
X98128856Y-32002804D01*
X98209059Y-31815907D01*
X98250000Y-31616690D01*
X98250000Y-31215000D01*
X97550000Y-31215000D01*
X97550000Y-30715000D01*
X98250000Y-30715000D01*
X98250000Y-30364286D01*
X98234581Y-30212661D01*
X98173700Y-30018618D01*
X98173695Y-30018608D01*
X98074994Y-29840784D01*
X98074994Y-29840783D01*
X97942521Y-29686469D01*
X97942520Y-29686468D01*
X97781695Y-29561981D01*
X97599093Y-29472411D01*
X97499999Y-29446753D01*
X97499999Y-30248888D01*
X97475543Y-30209390D01*
X97386038Y-30141799D01*
X97278160Y-30111105D01*
X97166479Y-30121454D01*
X97066078Y-30171448D01*
X97000000Y-30243930D01*
X97000000Y-29441633D01*
X96998053Y-29441931D01*
X96998047Y-29441933D01*
X96807342Y-29512562D01*
X96807335Y-29512565D01*
X96634732Y-29620149D01*
X96487331Y-29760264D01*
X96487330Y-29760266D01*
X96371142Y-29927197D01*
X96371140Y-29927200D01*
X96367760Y-29935078D01*
X96323232Y-29988921D01*
X96256663Y-30010142D01*
X96189189Y-29992005D01*
X96178332Y-29984556D01*
X96110233Y-29932302D01*
X96110232Y-29932301D01*
X96110230Y-29932300D01*
X96009872Y-29890731D01*
X95970236Y-29874313D01*
X95956171Y-29872461D01*
X95857727Y-29859500D01*
X95857720Y-29859500D01*
X95782280Y-29859500D01*
X95782272Y-29859500D01*
X95669764Y-29874313D01*
X95669763Y-29874313D01*
X95529770Y-29932300D01*
X95529767Y-29932301D01*
X95529767Y-29932302D01*
X95409549Y-30024549D01*
X95319580Y-30141799D01*
X95317300Y-30144770D01*
X95259313Y-30284763D01*
X95259312Y-30284765D01*
X95239534Y-30434999D01*
X95239534Y-30435000D01*
X90620466Y-30435000D01*
X90600687Y-30284764D01*
X90542698Y-30144767D01*
X90450451Y-30024549D01*
X90330233Y-29932302D01*
X90330229Y-29932300D01*
X90266801Y-29906027D01*
X90190236Y-29874313D01*
X90176171Y-29872461D01*
X90077727Y-29859500D01*
X90077720Y-29859500D01*
X90002280Y-29859500D01*
X90002272Y-29859500D01*
X89889764Y-29874313D01*
X89889763Y-29874313D01*
X89749769Y-29932300D01*
X89727821Y-29949142D01*
X89678743Y-29986800D01*
X89613575Y-30011994D01*
X89545131Y-29997956D01*
X89495141Y-29949142D01*
X89494839Y-29948602D01*
X89434994Y-29840784D01*
X89434994Y-29840783D01*
X89302521Y-29686469D01*
X89302520Y-29686468D01*
X89141695Y-29561981D01*
X88959093Y-29472411D01*
X88860000Y-29446753D01*
X88860000Y-30248889D01*
X88835543Y-30209390D01*
X88746038Y-30141799D01*
X88638160Y-30111105D01*
X88526479Y-30121454D01*
X88426078Y-30171448D01*
X88360000Y-30243930D01*
X88360000Y-29441633D01*
X88358053Y-29441931D01*
X88358047Y-29441933D01*
X88167342Y-29512562D01*
X88167335Y-29512565D01*
X87994732Y-29620149D01*
X87847331Y-29760264D01*
X87847330Y-29760266D01*
X87731143Y-29927195D01*
X87650940Y-30114092D01*
X87610000Y-30313309D01*
X87610000Y-30715000D01*
X88310000Y-30715000D01*
X88310000Y-31215000D01*
X87610000Y-31215000D01*
X87610000Y-31565713D01*
X81730668Y-31565713D01*
X81605871Y-31427112D01*
X81605870Y-31427111D01*
X81452734Y-31315851D01*
X81452729Y-31315848D01*
X81279807Y-31238857D01*
X81279802Y-31238855D01*
X81124563Y-31205859D01*
X81094646Y-31199500D01*
X80905354Y-31199500D01*
X80875437Y-31205859D01*
X80720197Y-31238855D01*
X80720192Y-31238857D01*
X80547270Y-31315848D01*
X80547265Y-31315851D01*
X80394129Y-31427111D01*
X80267466Y-31567785D01*
X80172821Y-31731715D01*
X80172818Y-31731722D01*
X80114327Y-31911740D01*
X80114326Y-31911744D01*
X80094540Y-32100000D01*
X37392123Y-32100000D01*
X36778498Y-31585107D01*
X35783321Y-32771115D01*
X35783320Y-32771116D01*
X34528741Y-34266263D01*
X25400500Y-34266263D01*
X25400500Y-32320298D01*
X32431805Y-32320298D01*
X32464593Y-32460292D01*
X32535490Y-32585370D01*
X32576991Y-32628550D01*
X34145720Y-33944870D01*
X35109901Y-32795804D01*
X33194789Y-31188835D01*
X32521254Y-31991525D01*
X32487886Y-32041250D01*
X32439784Y-32176744D01*
X32431805Y-32320298D01*
X25400500Y-32320298D01*
X25400500Y-30805811D01*
X33516182Y-30805811D01*
X35431293Y-32412781D01*
X36395475Y-31263715D01*
X34826746Y-29947394D01*
X34777022Y-29914027D01*
X34777016Y-29914024D01*
X34641524Y-29865921D01*
X34497969Y-29857943D01*
X34357973Y-29890731D01*
X34357970Y-29890732D01*
X34232896Y-29961627D01*
X34232894Y-29961629D01*
X34189721Y-30003124D01*
X34189710Y-30003135D01*
X33516182Y-30805811D01*
X25400500Y-30805811D01*
X25400500Y-25524500D01*
X25420185Y-25457461D01*
X25472989Y-25411706D01*
X25524500Y-25400500D01*
X88026072Y-25400500D01*
X88093111Y-25420185D01*
G37*
%TD.AperFunction*%
%TD*%
M02*
