%TF.GenerationSoftware,KiCad,Pcbnew,7.0.5*%
%TF.CreationDate,2023-07-04T17:16:00-06:00*%
%TF.ProjectId,keyboard,6b657962-6f61-4726-942e-6b696361645f,0.1*%
%TF.SameCoordinates,Original*%
%TF.FileFunction,Legend,Bot*%
%TF.FilePolarity,Positive*%
%FSLAX46Y46*%
G04 Gerber Fmt 4.6, Leading zero omitted, Abs format (unit mm)*
G04 Created by KiCad (PCBNEW 7.0.5) date 2023-07-04 17:16:00*
%MOMM*%
%LPD*%
G01*
G04 APERTURE LIST*
%ADD10C,0.127000*%
G04 APERTURE END LIST*
D10*
%TO.C,SW6*%
X76900000Y-93300000D02*
X76900000Y-97200000D01*
X76900000Y-97200000D02*
X81000000Y-97200000D01*
X83000000Y-95200000D02*
X88700000Y-95200000D01*
X88700000Y-90800000D02*
X79400000Y-90800000D01*
X88700000Y-90800000D02*
X88700000Y-95200000D01*
X79400000Y-90800000D02*
G75*
G03*
X76900000Y-93300000I3J-2500003D01*
G01*
X83000000Y-95200000D02*
G75*
G03*
X81000000Y-97200000I-1J-1999999D01*
G01*
%TO.C,SW9*%
X124128167Y-52240919D02*
X126635039Y-55228493D01*
X126635039Y-55228493D02*
X129775821Y-52593064D01*
X130022334Y-49775399D02*
X134388788Y-46111510D01*
X131560522Y-42740915D02*
X124436309Y-48718839D01*
X131560522Y-42740915D02*
X134388788Y-46111510D01*
X124436310Y-48718840D02*
G75*
G03*
X124128167Y-52240919I1606972J-1915111D01*
G01*
X130022334Y-49775399D02*
G75*
G03*
X129775821Y-52593064I1285574J-1532089D01*
G01*
%TO.C,SW8*%
X109535022Y-64486023D02*
X112041894Y-67473597D01*
X112041894Y-67473597D02*
X115182676Y-64838168D01*
X115429189Y-62020503D02*
X119795643Y-58356614D01*
X116967377Y-54986019D02*
X109843164Y-60963943D01*
X116967377Y-54986019D02*
X119795643Y-58356614D01*
X109843165Y-60963944D02*
G75*
G03*
X109535022Y-64486023I1606972J-1915111D01*
G01*
X115429189Y-62020503D02*
G75*
G03*
X115182676Y-64838168I1285574J-1532089D01*
G01*
%TO.C,SW7*%
X95950000Y-93300000D02*
X95950000Y-97200000D01*
X95950000Y-97200000D02*
X100050000Y-97200000D01*
X102050000Y-95200000D02*
X107750000Y-95200000D01*
X107750000Y-90800000D02*
X98450000Y-90800000D01*
X107750000Y-90800000D02*
X107750000Y-95200000D01*
X98450000Y-90800000D02*
G75*
G03*
X95950000Y-93300000I3J-2500003D01*
G01*
X102050000Y-95200000D02*
G75*
G03*
X100050000Y-97200000I-1J-1999999D01*
G01*
%TO.C,SW11*%
X122454681Y-128026745D02*
X125442254Y-130533616D01*
X125442254Y-130533616D02*
X128077683Y-127392834D01*
X127831169Y-124575170D02*
X131495059Y-120208717D01*
X128124463Y-117380451D02*
X122146538Y-124504665D01*
X128124463Y-117380451D02*
X131495059Y-120208717D01*
X122146538Y-124504665D02*
G75*
G03*
X122454682Y-128026744I1915114J-1606968D01*
G01*
X127831169Y-124575170D02*
G75*
G03*
X128077683Y-127392834I1532088J-1285575D01*
G01*
%TO.C,SW4*%
X66356401Y-56129784D02*
X63849530Y-59117357D01*
X63849530Y-59117357D02*
X66990312Y-61752786D01*
X69807976Y-61506272D02*
X74174429Y-65170162D01*
X77002695Y-61799566D02*
X69878481Y-55821641D01*
X77002695Y-61799566D02*
X74174429Y-65170162D01*
X69878481Y-55821641D02*
G75*
G03*
X66356402Y-56129785I-1606968J-1915114D01*
G01*
X69807976Y-61506272D02*
G75*
G03*
X66990312Y-61752786I-1285575J-1532088D01*
G01*
%TO.C,SW5*%
X55039081Y-118068167D02*
X52051507Y-120575039D01*
X52051507Y-120575039D02*
X54686936Y-123715821D01*
X57504601Y-123962334D02*
X61168490Y-128328788D01*
X64539085Y-125500522D02*
X58561161Y-118376309D01*
X64539085Y-125500522D02*
X61168490Y-128328788D01*
X58561160Y-118376310D02*
G75*
G03*
X55039081Y-118068167I-1915111J-1606972D01*
G01*
X57504601Y-123962334D02*
G75*
G03*
X54686936Y-123715821I-1532089J-1285574D01*
G01*
%TO.C,SW3*%
X51763255Y-43884681D02*
X49256384Y-46872254D01*
X49256384Y-46872254D02*
X52397166Y-49507683D01*
X55214830Y-49261169D02*
X59581283Y-52925059D01*
X62409549Y-49554463D02*
X55285335Y-43576538D01*
X62409549Y-49554463D02*
X59581283Y-52925059D01*
X55285335Y-43576538D02*
G75*
G03*
X51763256Y-43884682I-1606968J-1915114D01*
G01*
X55214830Y-49261169D02*
G75*
G03*
X52397166Y-49507683I-1285575J-1532088D01*
G01*
%TO.C,SW2*%
X37170108Y-31639574D02*
X34663237Y-34627147D01*
X34663237Y-34627147D02*
X37804019Y-37262576D01*
X40621683Y-37016062D02*
X44988136Y-40679952D01*
X47816402Y-37309356D02*
X40692188Y-31331431D01*
X47816402Y-37309356D02*
X44988136Y-40679952D01*
X40692188Y-31331431D02*
G75*
G03*
X37170109Y-31639575I-1606968J-1915114D01*
G01*
X40621683Y-37016062D02*
G75*
G03*
X37804019Y-37262576I-1285575J-1532088D01*
G01*
%TO.C,SW10*%
X138721315Y-39995814D02*
X141228187Y-42983388D01*
X141228187Y-42983388D02*
X144368969Y-40347959D01*
X144615482Y-37530294D02*
X148981936Y-33866405D01*
X146153670Y-30495810D02*
X139029457Y-36473734D01*
X146153670Y-30495810D02*
X148981936Y-33866405D01*
X139029458Y-36473735D02*
G75*
G03*
X138721315Y-39995814I1606972J-1915111D01*
G01*
X144615482Y-37530294D02*
G75*
G03*
X144368969Y-40347959I1285574J-1532089D01*
G01*
%TD*%
M02*
