M48
; DRILL file {KiCad 7.0.5} date Tue Jul  4 17:16:03 2023
; FORMAT={-:-/ absolute / inch / decimal}
; #@! TF.CreationDate,2023-07-04T17:16:03-06:00
; #@! TF.GenerationSoftware,Kicad,Pcbnew,7.0.5
; #@! TF.FileFunction,Plated,1,2,PTH
FMAT,2
INCH
; #@! TA.AperFunction,Plated,PTH,ViaDrill
T1C0.0157
; #@! TA.AperFunction,Plated,PTH,ComponentDrill
T2C0.0157
; #@! TA.AperFunction,Plated,PTH,ComponentDrill
T3C0.0236
; #@! TA.AperFunction,Plated,PTH,ComponentDrill
T4C0.1181
%
G90
G05
T1
X3.189Y-1.2638
X3.2874Y-1.811
X3.3425Y-1.6417
X3.3898Y-2.0787
X3.5Y-1.9016
X3.5079Y-2.126
X3.5276Y-1.5394
X3.5276Y-1.6339
X3.6142Y-1.7126
X3.6693Y-2.0039
X3.6693Y-2.0669
X3.7008Y-2.0354
X3.7087Y-2.122
X3.7323Y-2.0039
X3.7323Y-2.0669
X3.7953Y-2.5079
X3.8583Y-2.3504
X3.9055Y-1.9685
X3.9488Y-2.1142
X3.9685Y-1.7283
X4.0827Y-2.1024
T2
X1.3224Y-1.2673
X1.361Y-1.2213
X1.8846Y-1.6085
X1.897Y-1.7494
X1.9232Y-1.5625
X1.9355Y-1.7034
X2.0243Y-4.6452
X2.0703Y-4.6066
X2.4592Y-2.0906
X2.4715Y-2.2314
X2.4977Y-2.0446
X2.5101Y-2.1855
X2.5187Y-5.0788
X2.5647Y-5.0402
X2.9335Y-3.7204
X2.9335Y-3.7804
X3.0337Y-2.5727
X3.0723Y-2.5267
X3.5835Y-3.6204
X3.5835Y-3.6804
X3.6835Y-3.7204
X3.6835Y-3.7804
X4.2706Y-2.6354
X4.3092Y-2.6814
X4.3335Y-3.6204
X4.3335Y-3.6804
X4.7043Y-2.141
X4.7429Y-2.187
X4.7967Y-5.1428
X4.8427Y-5.1814
X4.8452Y-2.1533
X4.8837Y-2.1993
X5.1379Y-4.5806
X5.1839Y-4.6192
X5.2788Y-1.6589
X5.3174Y-1.7049
X5.4197Y-1.6713
X5.4583Y-1.7172
X5.8534Y-1.1768
X5.8919Y-1.2228
T4
X1.4949Y-1.3728
X1.7507Y-1.4569
X2.0695Y-1.8549
X2.1759Y-4.7791
X2.3252Y-1.939
X2.4132Y-4.9063
X2.644Y-2.337
X2.8998Y-2.4211
X3.1335Y-3.7504
X3.3835Y-3.6504
X3.8835Y-3.7504
X4.1335Y-3.6504
X4.4431Y-2.5299
X4.5704Y-2.2926
X4.9482Y-5.0089
X5.0177Y-2.0478
X5.0323Y-4.7531
X5.1449Y-1.8105
X5.5922Y-1.5657
X5.7194Y-1.3284
T3
G00X3.4886Y-1.0663
M15
G01X3.4886Y-1.0427
M16
G05
G00X3.4886Y-1.2407
M15
G01X3.4886Y-1.1974
M16
G05
G00X3.8287Y-1.0663
M15
G01X3.8287Y-1.0427
M16
G05
G00X3.8287Y-1.2407
M15
G01X3.8287Y-1.1974
M16
G05
T0
M30
